<?xml version="1.0" encoding="UTF-8" ?>
<!DOCTYPE svg PUBLIC "-//W3C//DTD SVG 1.1//EN" "http://www.w3.org/Graphics/SVG/1.1/DTD/svg11.dtd">
<svg width="1024pt" height="1024pt" viewBox="0 0 1024 1024" version="1.1" xmlns="http://www.w3.org/2000/svg">
<g id="#93d0d3ff">
<path fill="#93d0d3" opacity="1.00" d=" M 0.00 0.00 L 1024.00 0.00 L 1024.00 126.70 C 1006.37 130.68 989.09 136.07 971.61 140.65 C 944.67 148.12 917.87 156.09 891.09 164.07 C 888.73 164.17 886.33 164.20 884.13 165.14 C 880.38 166.69 876.35 167.30 872.49 168.46 C 864.60 171.09 856.27 172.26 848.54 175.40 C 838.93 178.38 829.25 181.14 819.86 184.79 C 813.78 187.41 807.13 188.24 801.09 190.94 C 791.66 193.94 782.62 197.97 773.29 201.24 C 765.58 204.81 757.27 206.84 749.63 210.56 C 741.40 214.47 732.76 217.40 724.60 221.46 C 721.14 222.88 717.86 224.87 714.19 225.66 C 712.78 225.04 711.54 223.11 709.84 223.94 C 704.43 225.89 699.61 229.13 694.29 231.29 C 689.90 233.08 685.71 235.31 681.61 237.68 C 669.70 243.31 658.57 250.44 647.46 257.50 C 638.38 263.14 630.07 269.98 622.37 277.36 C 617.26 283.80 611.71 290.45 609.56 298.54 C 608.18 303.00 610.24 307.36 610.71 311.76 C 607.45 313.82 603.47 312.52 599.95 312.11 C 593.10 310.64 585.93 311.77 579.19 309.69 C 577.08 309.09 575.66 307.13 573.48 306.69 C 561.55 303.76 549.85 299.92 537.83 297.33 C 527.80 294.30 517.42 292.70 507.37 289.73 C 501.98 288.22 496.41 287.52 490.98 286.19 C 489.68 286.01 489.39 284.07 487.93 284.25 C 484.36 284.11 480.81 283.70 477.37 282.73 C 463.52 279.10 449.28 277.53 435.22 275.00 C 427.75 274.07 420.35 272.34 412.79 272.30 C 409.14 271.85 405.51 271.30 401.87 270.81 C 406.54 262.07 414.09 254.63 415.69 244.51 C 418.74 239.12 416.17 232.82 412.53 228.47 C 410.49 226.26 407.36 225.72 404.84 224.27 C 401.09 222.08 396.30 222.57 392.49 224.37 C 389.61 225.63 386.36 225.99 383.66 227.67 C 381.40 231.30 380.18 235.51 377.82 239.12 C 372.28 240.45 366.70 238.88 361.13 238.83 C 360.99 236.00 361.26 233.12 360.64 230.33 C 359.49 227.41 357.45 224.93 355.34 222.65 C 352.56 219.36 348.07 218.58 344.21 217.26 C 338.15 219.72 331.27 221.66 327.38 227.38 C 325.42 231.63 328.83 235.40 328.84 239.57 C 324.84 241.47 320.62 242.52 316.17 241.79 C 315.03 238.37 315.45 234.07 312.38 231.60 C 310.02 228.87 306.15 229.19 303.10 227.77 C 300.98 226.44 299.06 228.67 296.94 228.84 C 292.69 229.47 289.07 232.56 286.96 236.18 C 284.68 242.16 289.71 247.56 293.73 251.34 C 296.55 252.72 299.12 254.40 300.82 257.12 C 304.55 259.23 308.23 261.42 311.95 263.53 C 311.84 263.86 311.61 264.53 311.50 264.87 C 304.23 266.42 296.69 266.04 289.44 267.70 C 278.02 270.25 266.11 274.08 257.92 282.88 C 255.23 285.51 253.44 290.57 249.03 290.28 C 242.79 289.31 236.39 289.42 230.22 287.95 C 219.50 284.61 208.80 281.13 197.97 278.13 C 190.52 275.54 182.68 274.42 175.16 272.02 C 166.44 270.05 157.86 266.48 148.74 267.39 C 138.36 265.24 127.82 263.87 117.21 263.96 C 112.09 263.24 106.82 262.81 101.70 263.71 C 98.28 266.69 101.26 271.27 101.82 274.85 C 95.46 275.93 89.12 273.90 82.74 274.30 C 76.58 273.47 70.45 272.48 64.27 271.88 C 42.99 268.59 21.52 266.45 0.00 265.72 L 0.00 0.00 Z" />
<path fill="#93d0d3" opacity="1.00" d=" M 456.99 344.74 C 458.38 343.92 459.78 343.12 461.25 342.43 C 460.69 344.24 459.80 345.95 458.46 347.31 C 458.10 346.67 457.36 345.38 456.99 344.74 Z" />
<path fill="#93d0d3" opacity="1.00" d=" M 503.82 409.92 C 501.96 409.88 502.45 407.57 503.67 406.97 C 503.71 407.71 503.78 409.18 503.82 409.92 Z" />
<path fill="#93d0d3" opacity="1.00" d=" M 393.94 414.16 L 394.78 413.93 C 396.27 415.82 392.91 416.46 393.94 414.16 Z" />
<path fill="#93d0d3" opacity="1.00" d=" M 539.00 431.37 L 539.89 431.33 C 539.99 431.74 540.19 432.56 540.28 432.96 C 539.48 434.84 537.92 432.33 539.00 431.37 Z" />
<path fill="#93d0d3" opacity="1.00" d=" M 718.96 604.10 C 720.63 603.86 722.39 603.73 723.99 604.46 C 723.92 604.88 723.77 605.71 723.70 606.13 C 721.91 606.02 720.24 605.33 718.96 604.10 Z" />
<path fill="#93d0d3" opacity="1.00" d=" M 666.19 635.32 C 670.58 634.15 673.72 637.89 677.99 638.04 C 678.00 638.78 678.02 640.27 678.03 641.01 C 677.60 640.96 676.72 640.88 676.29 640.83 C 673.62 638.22 669.85 637.77 666.53 636.46 C 666.45 636.17 666.27 635.61 666.19 635.32 Z" />
<path fill="#93d0d3" opacity="1.00" d=" M 781.15 680.04 C 782.06 678.77 784.43 680.03 783.62 681.49 C 783.02 682.73 782.18 683.10 781.11 682.59 C 781.12 681.95 781.14 680.67 781.15 680.04 Z" />
</g>
<g id="#26942bff">
<path fill="#26942b" opacity="1.00" d=" M 971.61 140.65 C 989.09 136.07 1006.37 130.68 1024.00 126.70 L 1024.00 498.46 C 1019.23 498.42 1017.14 493.62 1013.20 491.83 C 1011.74 491.13 1010.72 489.91 1009.60 488.82 C 1007.79 488.66 1005.86 488.89 1004.41 487.59 C 1001.29 484.67 996.91 488.57 993.58 486.46 C 989.48 483.72 984.37 483.62 979.94 481.60 C 974.62 480.52 970.53 476.87 966.37 473.65 C 964.05 471.58 960.78 472.33 957.97 472.07 C 955.40 472.05 952.99 471.12 950.53 470.57 C 947.51 469.86 944.23 471.25 941.36 469.78 C 939.62 468.95 939.01 466.86 937.47 465.81 C 935.06 464.42 932.18 464.58 929.51 464.32 C 927.14 464.24 925.13 462.80 922.87 462.33 C 920.33 461.82 917.75 461.60 915.25 460.98 C 916.08 460.29 916.93 459.62 917.79 458.94 C 913.59 457.10 909.08 455.59 904.45 456.39 C 900.49 457.02 896.43 455.67 893.62 452.85 C 894.15 451.87 894.92 451.07 895.64 450.23 C 890.44 449.71 885.60 447.20 880.31 447.69 C 878.57 446.06 876.54 445.27 874.16 445.64 C 872.34 443.85 871.08 440.87 868.05 441.12 C 864.46 441.69 862.35 445.36 863.07 448.85 C 860.91 445.56 862.19 441.21 864.15 438.13 C 866.49 434.50 866.22 429.95 868.07 426.10 C 870.04 421.64 870.04 416.69 870.30 411.92 C 870.38 408.84 872.33 406.12 872.08 403.00 C 872.27 399.88 870.43 397.14 870.29 394.08 C 869.98 390.15 870.05 386.10 868.63 382.36 C 866.57 377.29 865.89 371.76 863.12 366.97 C 861.03 360.89 855.69 356.92 852.52 351.50 C 850.96 348.62 847.44 347.96 845.18 345.82 C 841.03 341.60 835.05 340.35 829.69 338.36 C 817.22 336.41 804.55 338.35 792.08 339.25 C 785.07 342.01 777.24 340.52 770.19 343.11 C 765.90 344.56 761.21 344.20 756.98 345.94 C 751.79 347.95 745.97 347.44 740.92 349.85 C 737.46 351.45 733.35 352.74 729.61 351.56 C 727.79 349.63 726.34 347.36 724.29 345.66 C 717.79 340.22 712.80 333.07 705.56 328.52 C 697.77 323.66 689.37 319.74 680.51 317.33 C 671.75 314.05 662.22 314.56 653.04 314.80 C 647.96 315.23 642.71 315.08 637.87 316.87 C 634.74 318.00 631.40 318.32 628.28 319.44 C 626.29 319.51 624.48 318.95 623.12 317.48 C 619.75 311.27 618.28 303.78 620.91 297.02 C 626.44 282.40 639.22 272.32 651.45 263.40 C 681.35 242.73 714.85 228.11 748.29 214.23 C 776.42 202.70 805.09 192.58 833.84 182.75 C 847.75 178.52 861.34 173.29 875.30 169.21 C 880.58 167.56 885.96 166.18 891.09 164.07 C 917.87 156.09 944.67 148.12 971.61 140.65 Z" />
<path fill="#26942b" opacity="1.00" d=" M 249.87 298.00 C 255.66 298.01 261.42 298.66 267.15 299.43 C 266.94 300.54 266.71 301.64 266.44 302.74 C 260.71 302.11 255.33 299.75 249.87 298.00 Z" />
</g>
<g id="#958d8dff">
<path fill="#958d8d" opacity="1.00" d=" M 884.13 165.14 C 886.33 164.20 888.73 164.17 891.09 164.07 C 885.96 166.18 880.58 167.56 875.30 169.21 C 861.34 173.29 847.75 178.52 833.84 182.75 C 805.09 192.58 776.42 202.70 748.29 214.23 C 714.85 228.11 681.35 242.73 651.45 263.40 C 639.22 272.32 626.44 282.40 620.91 297.02 C 618.28 303.78 619.75 311.27 623.12 317.48 C 621.15 318.25 619.04 318.38 616.97 318.04 C 610.32 317.08 603.57 317.07 596.91 316.21 C 561.74 306.22 526.60 295.94 490.88 288.05 C 465.08 281.76 439.00 276.61 412.79 272.30 C 420.35 272.34 427.75 274.07 435.22 275.00 C 449.28 277.53 463.52 279.10 477.37 282.73 C 480.81 283.70 484.36 284.11 487.93 284.25 C 489.39 284.07 489.68 286.01 490.98 286.19 C 496.41 287.52 501.98 288.22 507.37 289.73 C 517.42 292.70 527.80 294.30 537.83 297.33 C 549.85 299.92 561.55 303.76 573.48 306.69 C 575.66 307.13 577.08 309.09 579.19 309.69 C 585.93 311.77 593.10 310.64 599.95 312.11 C 603.47 312.52 607.45 313.82 610.71 311.76 C 610.24 307.36 608.18 303.00 609.56 298.54 C 611.71 290.45 617.26 283.80 622.37 277.36 C 630.07 269.98 638.38 263.14 647.46 257.50 C 658.57 250.44 669.70 243.31 681.61 237.68 C 685.71 235.31 689.90 233.08 694.29 231.29 C 699.61 229.13 704.43 225.89 709.84 223.94 C 711.54 223.11 712.78 225.04 714.19 225.66 C 717.86 224.87 721.14 222.88 724.60 221.46 C 732.76 217.40 741.40 214.47 749.63 210.56 C 757.27 206.84 765.58 204.81 773.29 201.24 C 782.62 197.97 791.66 193.94 801.09 190.94 C 807.13 188.24 813.78 187.41 819.86 184.79 C 829.25 181.14 838.93 178.38 848.54 175.40 C 856.27 172.26 864.60 171.09 872.49 168.46 C 876.35 167.30 880.38 166.69 884.13 165.14 Z" />
<path fill="#958d8d" opacity="1.00" d=" M 101.70 263.71 C 106.82 262.81 112.09 263.24 117.21 263.96 C 115.22 265.16 111.98 266.09 112.26 268.99 C 112.91 272.84 116.07 275.57 117.89 278.89 C 110.61 278.78 103.47 277.21 96.24 276.55 C 91.76 275.63 87.23 275.10 82.74 274.30 C 89.12 273.90 95.46 275.93 101.82 274.85 C 101.26 271.27 98.28 266.69 101.70 263.71 Z" />
<path fill="#958d8d" opacity="1.00" d=" M 311.95 263.53 C 314.03 264.45 315.74 265.95 317.35 267.53 C 304.32 269.40 290.86 272.14 279.97 279.98 C 274.36 283.98 270.25 289.78 267.90 296.23 C 258.25 295.41 248.62 294.29 238.93 294.15 C 209.16 284.28 179.24 274.76 148.74 267.39 C 157.86 266.48 166.44 270.05 175.16 272.02 C 182.68 274.42 190.52 275.54 197.97 278.13 C 208.80 281.13 219.50 284.61 230.22 287.95 C 236.39 289.42 242.79 289.31 249.03 290.28 C 253.44 290.57 255.23 285.51 257.92 282.88 C 266.11 274.08 278.02 270.25 289.44 267.70 C 296.69 266.04 304.23 266.42 311.50 264.87 C 311.61 264.53 311.84 263.86 311.95 263.53 Z" />
<path fill="#958d8d" opacity="1.00" d=" M 3.23 291.30 C 5.76 290.85 8.37 291.18 10.66 292.37 C 13.88 293.95 17.47 294.87 20.36 297.06 C 19.16 299.57 16.62 300.23 14.04 300.35 C 10.00 298.16 6.10 295.46 2.99 292.06 L 3.23 291.30 Z" />
<path fill="#958d8d" opacity="1.00" d=" M 30.06 312.17 C 32.70 310.46 36.24 310.80 38.95 312.19 C 43.96 314.69 49.43 316.25 54.15 319.30 C 53.46 320.52 53.04 321.97 51.96 322.93 C 49.82 323.96 47.35 323.84 45.04 324.09 C 40.73 321.92 37.26 318.44 33.31 315.70 C 32.15 314.63 30.33 313.90 30.06 312.17 Z" />
<path fill="#958d8d" opacity="1.00" d=" M 69.46 340.14 C 73.44 338.73 78.26 336.22 82.39 338.57 C 90.65 341.92 98.77 345.61 106.99 349.07 C 108.87 349.89 110.88 350.62 112.38 352.08 C 111.30 354.04 110.64 356.37 108.94 357.89 C 105.26 359.52 101.23 360.09 97.32 360.88 C 88.18 355.58 80.19 348.52 71.66 342.31 C 70.95 341.59 69.69 341.19 69.46 340.14 Z" />
<path fill="#958d8d" opacity="1.00" d=" M 145.65 378.64 C 148.45 377.76 151.03 379.61 153.56 380.54 C 168.42 387.21 183.73 393.00 198.31 400.24 C 196.73 404.36 195.64 410.07 190.59 411.20 C 184.73 411.79 178.92 412.91 173.02 413.09 C 168.92 411.02 165.59 407.77 161.82 405.20 C 153.20 399.19 145.02 392.58 136.48 386.45 C 134.94 385.20 133.15 384.07 132.25 382.24 C 136.65 380.83 141.18 379.82 145.65 378.64 Z" />
<path fill="#958d8d" opacity="1.00" d=" M 240.73 443.75 C 244.06 443.06 247.65 441.50 250.97 443.03 C 269.83 450.94 288.69 458.88 307.34 467.26 C 303.19 471.47 298.48 475.16 295.07 480.05 C 291.49 485.43 287.92 490.80 284.43 496.22 C 282.43 493.30 279.53 491.26 276.65 489.31 C 259.96 477.02 243.22 464.80 226.69 452.29 C 225.47 451.15 223.54 450.32 223.31 448.48 C 229.06 446.70 234.93 445.35 240.73 443.75 Z" />
<path fill="#958d8d" opacity="1.00" d=" M 643.32 729.66 C 661.60 725.07 679.56 719.32 697.80 714.56 C 701.53 715.51 705.06 717.04 708.71 718.24 C 713.98 719.98 719.70 719.31 724.98 721.06 C 728.55 722.35 732.37 722.14 736.10 721.95 C 749.78 728.14 763.11 735.12 776.89 741.09 C 780.52 747.01 784.12 753.02 788.78 758.21 C 793.65 762.34 797.90 767.21 803.18 770.87 C 806.70 773.32 810.41 775.57 813.51 778.58 C 818.43 782.72 821.63 788.39 825.85 793.16 C 828.72 797.62 832.29 801.65 834.39 806.58 C 838.33 812.67 841.56 819.21 844.20 825.97 C 846.53 830.87 849.19 836.55 854.74 838.41 C 860.57 840.25 866.42 835.89 869.14 830.99 C 871.14 825.25 866.55 820.38 864.62 815.35 C 866.11 813.63 867.44 811.68 869.41 810.45 C 875.00 809.28 880.90 809.87 886.15 812.14 C 890.08 814.45 894.38 816.14 898.00 818.96 C 899.61 820.14 901.63 821.66 903.76 820.89 C 908.84 819.81 913.43 817.27 918.47 816.09 C 920.85 815.42 922.78 813.81 924.77 812.42 C 931.25 815.53 937.88 818.32 944.17 821.82 C 943.83 825.32 945.94 827.85 948.23 830.18 C 948.33 831.47 947.27 832.47 946.90 833.66 C 947.45 834.64 948.49 835.62 947.99 836.89 C 943.38 838.81 938.53 835.24 934.01 837.06 C 936.77 840.63 942.24 842.35 943.28 847.00 C 942.97 847.29 942.34 847.87 942.02 848.16 C 938.10 848.08 933.73 845.97 930.11 848.27 C 931.55 852.52 936.58 855.09 936.67 859.82 C 935.22 861.76 933.17 863.18 931.78 865.17 C 931.80 867.37 932.71 869.62 931.92 871.78 C 928.09 872.51 924.16 873.03 920.66 874.86 C 915.97 877.43 911.02 873.47 906.09 874.21 C 908.18 878.37 913.55 878.74 917.12 881.16 C 912.73 884.32 906.84 883.26 901.84 882.45 C 898.44 881.74 895.16 883.02 891.83 883.39 C 888.28 883.40 884.90 881.99 881.38 881.73 C 877.86 880.81 876.47 885.88 873.01 885.44 C 869.01 885.19 865.34 882.96 861.27 883.27 C 861.20 884.36 861.26 885.45 861.43 886.55 C 865.20 890.19 871.32 889.52 875.26 892.87 C 870.06 896.67 863.96 892.32 858.42 891.85 C 848.64 890.80 839.28 887.77 829.84 885.24 C 825.98 883.83 822.08 882.51 817.98 882.07 C 762.43 837.37 707.21 792.23 651.97 747.13 C 651.97 745.26 652.64 743.21 651.63 741.50 C 649.95 738.54 648.79 735.01 645.74 733.15 C 644.45 732.35 643.51 731.19 643.32 729.66 Z" />
</g>
<g id="#8ac342ff">
<path fill="#8ac342" opacity="1.00" d=" M 327.38 227.38 C 331.27 221.66 338.15 219.72 344.21 217.26 C 348.07 218.58 352.56 219.36 355.34 222.65 C 357.45 224.93 359.49 227.41 360.64 230.33 C 361.26 233.12 360.99 236.00 361.13 238.83 C 361.43 246.22 361.20 253.91 364.05 260.88 C 365.40 264.49 366.38 268.27 368.29 271.65 C 371.51 277.28 372.94 284.58 379.10 287.92 C 379.49 287.88 380.27 287.80 380.66 287.76 C 382.89 280.20 382.60 271.78 379.61 264.46 C 377.25 256.25 377.49 247.57 377.82 239.12 C 380.18 235.51 381.40 231.30 383.66 227.67 C 386.36 225.99 389.61 225.63 392.49 224.37 C 396.30 222.57 401.09 222.08 404.84 224.27 C 407.36 225.72 410.49 226.26 412.53 228.47 C 416.17 232.82 418.74 239.12 415.69 244.51 C 414.09 254.63 406.54 262.07 401.87 270.81 C 396.30 276.68 394.61 285.12 394.23 292.95 C 394.32 296.44 392.02 299.43 392.19 302.92 C 391.92 313.30 391.94 323.69 392.28 334.08 C 392.26 336.49 393.67 338.59 393.92 340.95 C 394.37 348.61 394.95 356.29 396.26 363.86 C 401.60 365.35 404.04 359.35 407.67 356.74 C 413.40 352.41 416.90 345.97 422.24 341.24 C 425.94 337.91 429.07 333.95 433.24 331.15 C 438.05 327.85 440.71 322.36 445.35 318.87 C 449.83 315.47 454.53 312.36 458.89 308.80 C 465.62 303.88 473.31 300.54 480.60 296.57 C 483.27 295.10 486.27 294.52 489.26 294.10 C 492.63 293.75 495.54 291.40 499.02 291.73 C 501.23 291.72 503.18 292.85 505.20 293.59 C 508.25 294.82 511.89 295.16 514.06 297.95 C 517.60 302.25 520.20 307.38 521.40 312.83 C 524.62 319.75 524.06 327.56 524.13 334.99 C 523.93 340.96 524.12 347.16 521.93 352.82 C 520.67 356.33 521.25 360.24 519.71 363.68 C 516.98 369.65 517.57 376.55 514.57 382.43 C 513.09 385.18 512.35 388.21 511.29 391.12 C 508.27 396.17 506.44 401.79 503.67 406.97 C 502.45 407.57 501.96 409.88 503.82 409.92 C 513.22 412.86 523.39 416.30 529.74 424.29 C 532.59 426.92 535.52 429.60 539.00 431.37 C 537.92 432.33 539.48 434.84 540.28 432.96 C 540.19 432.56 539.99 431.74 539.89 431.33 C 540.74 430.70 541.56 430.03 542.34 429.32 C 543.43 420.25 548.16 412.20 550.18 403.35 C 552.93 393.57 558.62 385.01 562.89 375.89 C 564.03 372.06 567.89 370.15 569.65 366.70 C 572.64 361.22 575.67 355.56 580.50 351.44 C 583.90 348.82 585.70 344.61 589.47 342.41 C 592.18 340.84 594.15 338.41 596.29 336.19 C 603.35 331.61 610.14 326.40 618.13 323.43 C 621.27 321.42 625.14 321.32 628.28 319.44 C 631.40 318.32 634.74 318.00 637.87 316.87 C 642.71 315.08 647.96 315.23 653.04 314.80 C 662.22 314.56 671.75 314.05 680.51 317.33 C 689.37 319.74 697.77 323.66 705.56 328.52 C 712.80 333.07 717.79 340.22 724.29 345.66 C 726.34 347.36 727.79 349.63 729.61 351.56 C 733.35 352.74 737.46 351.45 740.92 349.85 C 745.97 347.44 751.79 347.95 756.98 345.94 C 761.21 344.20 765.90 344.56 770.19 343.11 C 777.24 340.52 785.07 342.01 792.08 339.25 C 804.55 338.35 817.22 336.41 829.69 338.36 C 835.05 340.35 841.03 341.60 845.18 345.82 C 847.44 347.96 850.96 348.62 852.52 351.50 C 855.69 356.92 861.03 360.89 863.12 366.97 C 865.89 371.76 866.57 377.29 868.63 382.36 C 870.05 386.10 869.98 390.15 870.29 394.08 C 870.43 397.14 872.27 399.88 872.08 403.00 C 872.33 406.12 870.38 408.84 870.30 411.92 C 870.04 416.69 870.04 421.64 868.07 426.10 C 866.22 429.95 866.49 434.50 864.15 438.13 C 862.19 441.21 860.91 445.56 863.07 448.85 C 866.60 454.31 868.64 460.58 871.68 466.31 C 872.98 471.31 875.59 475.94 876.11 481.13 C 878.01 493.68 877.82 506.63 875.02 519.04 C 872.19 527.51 868.12 535.53 863.50 543.16 C 862.51 544.80 861.73 546.60 860.43 548.03 C 860.20 547.41 859.75 546.18 859.53 545.57 C 850.05 541.81 839.72 542.58 829.75 541.90 C 833.60 537.36 839.31 533.15 839.37 526.65 C 838.91 526.80 838.01 527.09 837.55 527.24 C 834.83 532.34 830.79 537.22 825.08 539.02 C 821.90 540.11 818.97 541.94 815.62 542.49 C 811.71 543.01 808.10 545.08 804.08 544.79 C 797.95 544.44 791.61 545.59 785.68 543.59 C 780.57 542.15 775.08 542.85 770.07 540.94 C 765.57 539.13 760.61 539.36 756.05 537.84 C 751.22 535.85 746.01 535.06 741.20 533.00 C 734.36 531.15 728.17 527.54 721.31 525.77 C 709.59 521.39 698.30 515.95 686.73 511.19 C 683.90 509.78 681.31 507.93 678.33 506.84 C 670.70 503.85 663.51 499.81 656.46 495.68 C 656.44 495.40 656.40 494.85 656.38 494.57 C 660.17 493.05 664.29 491.12 665.95 487.08 C 662.31 488.07 659.48 490.87 655.80 491.75 C 651.43 492.84 646.86 492.81 642.39 492.57 C 638.01 492.41 634.29 489.84 630.19 488.62 C 631.15 490.06 632.19 491.44 633.31 492.77 C 622.76 493.50 611.74 491.61 601.61 495.46 C 595.62 497.68 589.27 499.25 583.95 502.92 C 580.89 505.00 577.26 506.08 574.33 508.34 C 567.69 513.66 560.94 518.88 554.94 524.92 C 554.32 525.77 553.02 526.56 553.29 527.77 C 556.05 532.82 560.39 536.72 563.83 541.29 C 568.03 547.08 574.51 550.51 579.26 555.79 C 589.50 563.43 599.99 570.82 611.46 576.52 C 616.12 578.55 620.23 581.84 625.39 582.62 C 634.81 587.31 644.76 590.82 654.74 594.10 C 659.18 595.03 663.83 595.12 668.08 596.88 C 672.32 598.73 677.14 597.92 681.42 599.63 C 689.45 602.72 698.43 600.35 706.46 603.35 C 710.58 604.05 714.81 603.46 718.96 604.10 C 720.24 605.33 721.91 606.02 723.70 606.13 C 725.64 609.11 729.63 609.50 732.28 611.71 C 739.17 615.57 746.49 618.68 753.36 622.61 C 755.86 624.10 758.15 626.00 760.94 626.98 C 767.55 629.18 773.63 632.70 779.49 636.42 C 786.17 638.59 792.42 641.92 798.28 645.77 C 806.03 650.13 814.69 652.76 821.92 658.05 C 824.76 660.23 828.42 660.77 831.49 662.53 C 832.69 663.03 833.90 664.12 835.29 663.53 C 836.50 661.43 836.96 658.48 839.62 657.70 C 845.57 654.97 851.32 651.16 858.02 650.75 C 862.99 650.30 867.98 649.25 872.99 649.82 C 876.96 650.19 880.15 652.80 883.68 654.41 C 894.00 659.28 903.54 665.75 914.38 669.55 C 922.31 672.25 930.80 672.17 939.07 671.99 C 943.35 671.78 947.91 671.21 951.38 668.46 C 954.03 666.36 956.93 664.64 960.19 663.66 C 960.04 663.16 959.90 662.66 959.77 662.17 C 963.23 661.06 966.87 660.55 970.20 659.04 C 978.12 655.24 988.27 656.25 994.91 662.15 C 998.98 666.20 1003.28 670.17 1005.60 675.56 C 1007.92 681.05 1011.68 686.66 1010.10 692.90 C 1008.76 696.58 1005.58 699.33 1002.20 701.14 C 998.31 703.44 993.69 703.57 989.44 704.73 C 982.69 703.56 975.76 704.31 969.06 702.85 C 964.75 701.87 960.69 700.08 956.58 698.51 C 953.30 697.15 949.60 697.84 946.33 696.56 C 945.06 696.13 943.84 695.58 942.52 695.48 C 943.55 701.94 948.66 707.30 948.98 714.01 C 949.22 717.63 949.18 721.70 946.65 724.60 C 944.43 727.72 940.50 728.52 937.32 730.25 C 938.43 733.10 941.18 734.70 943.32 736.71 C 947.04 740.21 951.91 742.00 956.03 744.93 C 958.81 746.51 961.53 748.76 964.87 748.86 C 964.95 748.39 965.11 747.44 965.19 746.96 C 966.32 749.24 967.86 751.50 970.27 752.59 C 976.11 755.06 980.15 760.18 984.63 764.46 C 988.09 767.45 989.12 772.04 990.08 776.30 C 989.74 779.50 988.71 783.01 986.30 785.28 C 980.40 789.54 973.57 792.82 966.25 793.50 C 963.15 793.89 959.98 793.17 957.27 791.69 C 955.47 790.51 955.20 787.57 952.85 787.24 C 950.39 786.43 947.36 786.62 945.70 784.32 C 946.22 784.26 947.27 784.13 947.79 784.07 C 945.14 780.78 942.03 777.92 939.29 774.72 C 932.22 767.41 926.97 758.49 919.19 751.85 C 916.44 749.87 913.18 748.72 910.46 746.70 C 912.33 743.52 915.28 741.17 918.44 739.37 C 921.62 737.61 924.14 734.78 927.60 733.52 C 928.79 732.89 930.57 732.77 930.90 731.19 C 921.56 730.74 911.89 731.41 902.98 728.06 C 897.12 726.73 891.58 724.19 885.61 723.37 C 879.74 722.86 873.60 722.20 867.87 723.89 C 864.64 725.72 861.39 728.47 860.29 732.14 C 862.04 740.26 865.61 748.42 871.90 754.07 C 879.99 763.33 890.37 770.38 901.52 775.46 C 902.64 776.00 903.83 776.23 905.11 776.15 C 905.24 773.21 902.85 770.94 902.70 768.07 C 902.52 765.76 902.72 763.44 903.13 761.18 C 903.46 761.25 904.13 761.40 904.46 761.47 C 907.66 772.88 918.32 779.42 925.93 787.70 C 926.05 792.85 931.97 795.70 931.42 801.00 C 931.59 805.78 927.15 808.75 924.77 812.42 C 922.78 813.81 920.85 815.42 918.47 816.09 C 913.43 817.27 908.84 819.81 903.76 820.89 C 901.63 821.66 899.61 820.14 898.00 818.96 C 894.38 816.14 890.08 814.45 886.15 812.14 C 884.32 807.27 879.76 804.34 876.70 800.33 C 872.76 795.24 867.96 790.85 864.60 785.33 C 861.39 781.20 856.81 778.42 852.77 775.20 C 850.10 772.98 846.53 772.33 843.17 772.82 C 841.66 774.87 841.95 777.56 841.82 779.97 C 841.91 784.56 841.80 789.54 844.42 793.56 C 849.58 802.15 857.95 808.04 864.62 815.35 C 866.55 820.38 871.14 825.25 869.14 830.99 C 866.42 835.89 860.57 840.25 854.74 838.41 C 849.19 836.55 846.53 830.87 844.20 825.97 C 841.56 819.21 838.33 812.67 834.39 806.58 C 832.29 801.65 828.72 797.62 825.85 793.16 C 821.63 788.39 818.43 782.72 813.51 778.58 C 810.41 775.57 806.70 773.32 803.18 770.87 C 797.90 767.21 793.65 762.34 788.78 758.21 C 784.12 753.02 780.52 747.01 776.89 741.09 C 776.14 737.29 776.59 732.97 774.20 729.69 C 771.89 727.27 768.19 727.29 765.52 725.46 C 759.76 721.07 752.91 718.51 746.39 715.54 C 736.34 709.83 725.87 704.89 715.54 699.73 C 708.61 695.62 700.77 693.36 693.90 689.16 C 683.75 684.73 673.52 680.48 663.59 675.59 C 659.19 673.80 654.97 671.48 650.23 670.77 C 645.10 669.10 640.13 666.95 635.05 665.15 C 631.73 664.43 628.26 664.40 625.14 662.93 C 617.85 661.15 610.26 661.43 602.83 660.54 C 595.59 659.95 588.30 660.54 581.05 660.13 C 575.54 656.88 568.99 658.94 562.96 658.14 C 553.12 656.91 543.18 657.29 533.29 657.01 C 532.52 654.73 529.90 655.39 528.06 655.22 C 518.96 655.39 509.93 654.11 500.84 654.18 C 490.21 653.73 479.56 654.15 468.93 654.01 C 465.85 654.04 463.19 651.99 460.08 652.16 C 451.61 651.22 442.80 651.55 434.76 648.43 C 431.41 647.57 427.83 647.78 424.60 646.40 C 421.36 645.03 417.78 644.86 414.56 643.49 C 411.38 641.98 407.75 641.99 404.57 640.54 C 399.84 638.25 394.38 638.54 389.60 636.40 C 382.91 633.68 375.90 631.83 369.32 628.86 C 366.08 627.85 361.69 625.85 358.90 628.81 C 356.87 637.06 352.71 644.52 348.97 652.08 C 345.83 658.27 341.16 663.47 336.82 668.82 C 335.24 670.73 332.80 671.51 330.88 672.96 C 328.73 675.11 327.11 677.89 324.27 679.23 C 321.85 680.37 319.79 682.14 317.42 683.34 C 312.29 684.91 307.49 687.37 302.21 688.45 C 293.92 691.81 284.77 691.19 276.00 691.36 C 270.27 691.16 264.16 691.93 258.85 689.29 C 253.26 686.56 247.38 683.48 243.99 678.03 C 241.78 674.59 238.75 671.70 236.97 667.99 C 235.00 663.75 231.51 660.35 230.30 655.75 C 224.64 644.59 220.11 632.89 215.88 621.12 C 213.55 616.03 214.37 610.13 211.88 605.11 C 210.18 601.63 210.62 597.56 208.87 594.11 C 207.08 590.57 207.63 586.42 206.12 582.80 C 203.29 575.98 204.47 568.22 201.60 561.41 C 199.83 557.17 200.77 552.33 198.82 548.15 C 197.64 545.65 197.83 542.84 197.52 540.17 C 193.90 539.29 192.32 543.30 190.75 545.75 C 189.69 547.92 187.54 549.16 185.98 550.91 C 180.16 561.62 172.75 571.39 167.29 582.32 C 164.23 588.85 160.04 594.80 157.48 601.56 C 154.65 607.24 152.76 613.32 150.18 619.11 C 147.38 625.35 148.50 632.53 145.85 638.82 C 144.37 642.54 145.42 646.55 146.89 650.08 C 147.13 656.39 148.20 662.69 147.96 669.02 C 147.26 674.45 147.79 680.14 145.48 685.24 C 144.62 689.49 143.44 694.05 139.98 696.97 C 137.60 698.60 135.18 700.17 132.83 701.84 C 130.33 703.63 127.06 702.98 124.22 702.67 C 121.83 700.53 118.50 700.02 116.02 698.01 C 113.21 695.82 110.39 693.60 108.00 690.95 C 105.72 688.59 105.75 685.12 104.67 682.20 C 104.13 680.07 102.52 677.84 103.73 675.66 C 104.79 673.36 105.20 670.85 104.84 668.35 C 105.11 666.58 105.19 664.71 106.08 663.13 C 109.85 656.93 113.38 650.57 117.55 644.62 C 121.91 639.57 127.01 635.01 129.97 628.91 C 132.12 624.45 135.44 619.70 134.45 614.53 C 131.71 613.34 128.56 614.70 126.13 616.08 C 122.61 618.52 119.10 621.02 115.88 623.86 C 111.55 628.25 105.81 631.04 102.12 636.11 C 96.07 642.35 91.86 650.00 88.17 657.80 C 85.76 659.10 85.66 662.16 84.15 664.21 C 82.48 666.46 80.63 668.70 78.23 670.19 C 73.58 672.17 68.23 672.81 63.30 671.54 C 60.00 670.97 58.76 667.47 56.68 665.29 C 52.64 660.83 48.89 655.34 49.21 649.05 C 49.00 643.31 55.42 640.75 56.50 635.45 C 61.36 631.86 66.37 628.50 71.75 625.74 C 77.26 621.49 83.93 619.25 90.57 617.46 C 94.33 615.75 98.45 615.28 102.42 614.29 C 108.92 611.98 115.98 607.23 116.17 599.58 C 112.03 601.47 107.36 600.86 103.05 602.09 C 100.14 602.87 97.26 603.82 94.29 604.36 C 83.75 605.87 73.74 609.75 63.99 613.87 C 61.16 614.98 58.21 615.87 55.64 617.57 C 51.76 620.23 47.31 622.38 44.70 626.49 C 41.36 628.24 40.63 632.66 37.01 634.07 C 31.41 636.68 25.46 632.99 21.57 629.03 C 17.93 626.17 15.88 621.94 14.29 617.70 C 12.73 613.33 14.00 607.70 18.22 605.32 C 21.94 602.82 26.32 601.71 30.25 599.66 C 38.99 597.40 48.08 598.28 57.00 597.92 C 63.78 597.63 70.77 598.81 77.35 596.68 C 82.24 595.72 87.32 595.88 92.13 594.41 C 98.26 592.11 102.48 586.79 104.82 580.85 C 106.68 575.70 110.60 571.72 112.80 566.75 C 115.27 561.18 119.36 556.59 122.33 551.31 C 126.47 544.05 132.92 538.59 139.06 533.08 C 142.43 530.57 146.28 528.78 149.99 526.85 C 154.70 524.41 160.96 525.98 164.73 521.68 C 172.40 516.37 177.56 507.97 179.77 499.00 C 180.81 491.01 178.46 482.54 181.84 474.90 C 184.03 470.64 188.77 468.59 193.20 467.54 C 203.00 469.74 213.71 473.85 218.69 483.27 C 221.96 488.56 219.12 494.77 216.65 499.75 C 214.38 503.83 213.38 508.42 211.73 512.75 C 209.95 516.78 213.31 520.56 213.58 524.57 C 214.04 529.20 215.36 533.64 216.76 538.05 C 217.64 543.78 220.31 548.97 221.50 554.63 C 224.44 563.19 227.29 571.81 231.05 580.05 C 236.14 590.93 241.15 601.93 248.07 611.79 C 251.64 615.38 256.86 616.36 261.10 618.90 C 264.19 620.54 267.76 622.94 271.36 621.38 C 278.95 616.76 284.08 608.94 286.37 600.47 C 286.92 597.27 286.52 593.87 287.90 590.86 C 289.16 588.07 289.54 584.20 286.73 582.23 C 282.09 576.20 279.68 568.79 277.23 561.67 C 275.43 557.70 276.55 553.13 274.85 549.15 C 273.35 545.61 274.14 541.69 273.95 537.97 C 273.57 534.47 275.86 531.50 275.98 528.08 C 276.37 523.57 276.53 518.93 278.68 514.84 C 279.98 508.45 282.61 502.47 284.43 496.22 C 287.92 490.80 291.49 485.43 295.07 480.05 C 298.48 475.16 303.19 471.47 307.34 467.26 C 312.69 461.79 319.53 458.22 325.41 453.41 C 328.29 451.01 331.95 449.93 335.14 448.04 C 341.21 444.28 347.68 441.20 354.06 438.03 C 360.11 436.38 365.71 433.57 371.64 431.56 C 374.84 429.74 379.04 430.46 381.81 427.84 C 386.28 423.89 391.60 421.02 395.84 416.80 C 400.74 412.10 405.98 407.78 411.10 403.32 C 417.75 396.91 424.25 390.33 430.72 383.73 C 435.45 379.05 438.86 373.26 443.30 368.32 C 449.07 361.85 453.30 354.24 458.46 347.31 C 459.80 345.95 460.69 344.24 461.25 342.43 C 459.78 343.12 458.38 343.92 456.99 344.74 C 448.33 348.69 440.85 354.64 432.99 359.92 C 427.77 363.26 423.27 367.56 418.72 371.72 C 415.80 374.11 412.84 376.48 410.26 379.25 C 406.69 383.05 402.46 386.31 399.66 390.77 C 398.12 393.27 398.71 396.33 398.67 399.11 C 399.08 404.37 397.71 409.55 394.78 413.93 L 393.94 414.16 C 383.77 418.08 370.90 417.17 363.02 409.01 C 360.74 403.09 361.47 395.49 366.56 391.18 C 369.28 386.08 371.78 380.10 370.57 374.19 C 369.49 371.02 368.49 367.82 367.35 364.68 C 362.90 358.86 356.69 354.40 353.32 347.74 C 351.42 343.50 348.71 339.56 348.10 334.86 C 345.01 327.29 345.26 318.99 344.76 310.97 C 344.35 305.11 345.10 299.22 344.42 293.39 C 343.18 288.61 340.44 284.32 337.80 280.20 C 334.66 278.07 331.74 275.63 328.62 273.49 C 324.57 272.02 321.51 268.74 317.35 267.53 C 315.74 265.95 314.03 264.45 311.95 263.53 C 308.23 261.42 304.55 259.23 300.82 257.12 C 299.12 254.40 296.55 252.72 293.73 251.34 C 289.71 247.56 284.68 242.16 286.96 236.18 C 289.07 232.56 292.69 229.47 296.94 228.84 C 299.06 228.67 300.98 226.44 303.10 227.77 C 306.15 229.19 310.02 228.87 312.38 231.60 C 315.45 234.07 315.03 238.37 316.17 241.79 C 319.66 251.88 327.39 259.80 334.85 267.15 C 342.04 274.67 349.67 281.73 357.84 288.16 C 358.77 288.68 359.78 289.01 360.87 289.13 C 361.99 282.90 358.45 277.03 353.81 273.19 C 351.80 271.54 349.92 269.74 348.21 267.78 C 344.84 263.76 340.42 260.55 338.13 255.69 C 335.32 250.15 330.11 245.81 328.84 239.57 C 328.83 235.40 325.42 231.63 327.38 227.38 M 642.24 347.13 C 637.78 348.10 633.80 350.44 630.16 353.10 C 626.04 358.02 620.59 362.13 618.30 368.34 C 615.44 373.90 612.73 379.77 612.21 386.09 C 612.19 388.54 610.32 390.48 610.31 392.91 C 610.07 401.23 609.47 409.61 610.45 417.91 L 611.15 418.53 C 613.83 415.94 612.24 411.73 613.74 408.59 C 615.58 404.93 614.88 400.55 616.97 396.99 C 618.75 393.81 618.83 389.97 620.82 386.88 C 624.12 382.14 627.52 377.49 630.64 372.63 C 636.38 369.03 641.83 364.86 648.11 362.20 C 659.16 359.83 670.91 359.05 681.91 362.12 C 687.32 364.72 691.79 368.86 696.45 372.59 C 700.15 377.94 703.60 383.49 706.77 389.17 C 708.87 395.24 710.98 401.34 713.80 407.10 C 714.34 412.73 716.94 417.70 718.69 422.97 C 719.80 408.62 720.06 393.98 717.17 379.80 C 714.57 373.16 711.59 366.56 707.11 360.94 C 701.43 355.04 695.23 348.68 686.80 347.23 C 680.43 343.84 672.99 344.12 665.98 343.71 C 658.01 343.85 649.53 343.40 642.24 347.13 M 806.95 353.82 C 800.81 354.62 796.33 359.11 791.28 362.20 C 788.14 364.16 786.93 367.88 784.46 370.49 C 782.48 372.57 781.17 375.16 779.52 377.49 C 777.08 380.81 776.86 385.12 774.66 388.57 C 773.11 393.12 770.59 397.33 770.21 402.23 C 767.39 407.82 767.26 414.25 766.74 420.39 C 768.45 418.74 769.61 416.60 770.48 414.41 C 772.72 408.87 776.09 403.88 778.25 398.30 C 784.34 388.91 790.28 379.24 798.50 371.53 C 805.42 367.21 812.26 361.10 821.01 361.71 C 825.11 361.24 828.46 363.92 832.32 364.77 C 836.87 367.67 842.30 370.53 844.04 376.03 C 846.34 379.39 847.10 383.44 848.92 387.05 C 850.70 397.94 850.15 409.06 849.09 420.00 C 849.03 422.80 847.15 425.12 846.91 427.89 C 846.46 431.34 846.58 435.04 844.16 437.82 C 844.64 437.66 845.59 437.34 846.06 437.18 C 846.61 435.21 847.37 433.32 848.56 431.64 C 849.42 429.29 849.35 426.68 850.42 424.40 C 853.29 419.08 853.25 412.84 854.31 407.03 C 857.01 400.71 855.87 393.66 856.02 386.97 C 856.31 383.79 854.87 380.98 854.01 378.04 C 852.52 367.82 844.22 359.59 834.76 356.20 C 833.04 354.97 831.08 354.22 828.97 354.09 C 826.22 353.90 823.88 352.06 821.10 352.14 C 816.33 352.07 811.30 351.48 806.95 353.82 M 546.37 446.40 C 541.62 448.07 541.80 455.17 544.22 458.79 C 547.55 460.97 552.38 461.02 555.60 458.58 C 557.76 455.34 557.80 450.67 555.51 447.48 C 552.91 445.59 549.36 445.43 546.37 446.40 M 577.44 456.52 C 574.33 458.20 571.99 461.36 572.79 465.06 C 572.63 471.36 580.46 474.10 585.43 471.51 C 587.86 468.04 591.13 462.56 586.98 459.08 C 584.96 455.86 580.75 455.84 577.44 456.52 M 561.48 473.60 C 559.17 474.83 560.92 477.39 562.11 478.75 C 563.58 481.11 566.75 479.65 568.62 478.57 C 569.08 476.88 569.16 475.07 568.69 473.38 C 566.49 472.15 563.39 471.52 561.48 473.60 M 320.37 482.51 C 314.07 483.83 310.20 489.65 306.59 494.49 C 304.38 501.07 304.31 508.17 304.89 515.03 C 305.56 519.25 305.91 523.87 308.74 527.32 C 311.64 531.03 313.73 535.48 317.47 538.49 C 321.32 540.64 324.99 543.17 329.04 544.97 C 333.35 545.96 337.85 545.87 342.23 545.39 C 346.37 544.95 349.21 541.66 352.55 539.57 C 357.02 536.77 358.63 531.42 360.81 526.93 C 361.84 520.79 361.82 514.39 360.54 508.30 C 358.76 505.00 358.01 501.22 355.78 498.16 C 352.38 492.70 347.40 488.49 342.34 484.63 C 335.61 481.32 327.63 481.01 320.37 482.51 M 371.69 484.57 C 370.22 486.01 368.86 487.84 368.80 489.99 C 368.32 492.82 370.58 494.92 371.80 497.22 C 373.38 500.38 378.03 500.20 380.75 498.74 C 383.18 496.05 383.08 492.12 382.14 488.85 C 380.86 484.74 375.41 481.91 371.69 484.57 M 381.58 507.55 C 380.07 508.37 378.57 509.23 377.11 510.15 C 369.13 515.05 369.33 528.88 377.76 533.24 C 380.96 535.62 385.22 535.59 388.98 534.88 C 394.13 533.36 397.69 528.91 400.40 524.53 C 402.91 519.31 400.07 513.48 396.27 509.76 C 392.55 505.94 386.26 505.82 381.58 507.55 M 828.56 510.92 C 831.28 512.74 833.52 515.54 836.88 516.18 C 842.52 517.73 849.01 518.21 854.31 515.34 C 856.13 513.76 858.76 512.41 859.09 509.79 C 858.63 509.85 857.71 509.97 857.25 510.03 C 853.81 512.86 849.21 513.12 844.96 513.36 C 841.17 513.41 837.31 513.31 833.64 512.33 C 832.13 511.62 830.00 508.81 828.56 510.92 M 666.19 635.32 C 666.27 635.61 666.45 636.17 666.53 636.46 C 669.85 637.77 673.62 638.22 676.29 640.83 C 676.72 640.88 677.60 640.96 678.03 641.01 L 678.33 641.73 C 684.07 645.60 690.12 649.03 696.60 651.53 C 708.54 658.07 721.04 663.41 732.82 670.26 C 735.15 671.23 737.78 671.58 739.85 673.14 C 742.25 674.89 744.62 676.79 747.54 677.61 C 751.58 678.75 754.42 682.18 758.36 683.51 C 763.18 684.86 767.17 688.08 771.82 689.88 C 774.71 687.31 777.69 684.61 781.11 682.59 C 782.18 683.10 783.02 682.73 783.62 681.49 C 784.43 680.03 782.06 678.77 781.15 680.04 C 781.07 679.57 780.89 678.65 780.80 678.19 C 774.91 675.85 769.62 672.01 763.32 670.67 C 759.45 668.31 754.87 667.60 751.20 664.90 C 748.37 664.21 745.57 663.43 743.16 661.73 C 736.94 660.02 731.16 657.14 725.25 654.61 C 721.93 653.98 719.41 651.40 716.05 650.91 C 712.97 650.34 709.91 649.62 707.37 647.72 C 701.88 646.16 696.86 643.36 691.46 641.59 C 686.75 641.03 682.94 637.27 677.99 638.04 C 673.72 637.89 670.58 634.15 666.19 635.32 Z" />
</g>
<g id="#bbd633ff">
<path fill="#bbd633" opacity="1.00" d=" M 361.13 238.83 C 366.70 238.88 372.28 240.45 377.82 239.12 C 377.49 247.57 377.25 256.25 379.61 264.46 C 382.60 271.78 382.89 280.20 380.66 287.76 C 380.27 287.80 379.49 287.88 379.10 287.92 C 372.94 284.58 371.51 277.28 368.29 271.65 C 366.38 268.27 365.40 264.49 364.05 260.88 C 361.20 253.91 361.43 246.22 361.13 238.83 Z" />
<path fill="#bbd633" opacity="1.00" d=" M 316.17 241.79 C 320.62 242.52 324.84 241.47 328.84 239.57 C 330.11 245.81 335.32 250.15 338.13 255.69 C 340.42 260.55 344.84 263.76 348.21 267.78 C 349.92 269.74 351.80 271.54 353.81 273.19 C 358.45 277.03 361.99 282.90 360.87 289.13 C 359.78 289.01 358.77 288.68 357.84 288.16 C 349.67 281.73 342.04 274.67 334.85 267.15 C 327.39 259.80 319.66 251.88 316.17 241.79 Z" />
<path fill="#bbd633" opacity="1.00" d=" M 601.61 495.46 C 611.74 491.61 622.76 493.50 633.31 492.77 C 635.81 493.30 638.12 494.40 640.38 495.57 C 643.83 497.45 648.06 495.95 651.57 497.45 C 655.50 500.56 659.37 503.84 663.93 506.03 C 669.57 508.60 674.91 511.77 680.47 514.50 C 690.97 517.93 700.24 524.47 711.05 527.02 C 715.88 528.76 720.42 531.25 725.40 532.59 C 733.08 534.80 740.25 538.83 748.29 539.66 C 752.65 540.20 756.45 542.69 760.81 543.35 C 766.62 545.85 773.02 545.87 779.00 547.83 C 790.27 549.10 801.73 549.35 813.02 548.08 C 818.74 546.49 824.61 544.97 829.75 541.90 C 839.72 542.58 850.05 541.81 859.53 545.57 C 859.75 546.18 860.20 547.41 860.43 548.03 C 854.48 554.57 849.45 562.27 841.44 566.58 C 837.27 571.99 830.64 574.48 825.03 578.09 C 820.74 581.98 814.74 582.79 810.09 586.13 C 806.39 588.78 801.52 588.30 797.68 590.62 C 795.11 591.97 792.11 592.17 789.55 593.56 C 785.62 595.60 780.99 595.19 776.98 597.00 C 771.15 599.45 764.52 598.05 758.74 600.63 C 749.58 602.17 740.22 602.30 730.94 602.32 C 728.43 602.19 726.19 603.45 723.99 604.46 C 722.39 603.73 720.63 603.86 718.96 604.10 C 714.81 603.46 710.58 604.05 706.46 603.35 C 698.43 600.35 689.45 602.72 681.42 599.63 C 677.14 597.92 672.32 598.73 668.08 596.88 C 663.83 595.12 659.18 595.03 654.74 594.10 C 644.76 590.82 634.81 587.31 625.39 582.62 C 620.23 581.84 616.12 578.55 611.46 576.52 C 599.99 570.82 589.50 563.43 579.26 555.79 C 574.51 550.51 568.03 547.08 563.83 541.29 C 560.39 536.72 556.05 532.82 553.29 527.77 C 553.02 526.56 554.32 525.77 554.94 524.92 C 560.94 518.88 567.69 513.66 574.33 508.34 C 577.26 506.08 580.89 505.00 583.95 502.92 C 589.27 499.25 595.62 497.68 601.61 495.46 Z" />
<path fill="#bbd633" opacity="1.00" d=" M 103.05 602.09 C 107.36 600.86 112.03 601.47 116.17 599.58 C 115.98 607.23 108.92 611.98 102.42 614.29 C 98.45 615.28 94.33 615.75 90.57 617.46 C 83.93 619.25 77.26 621.49 71.75 625.74 C 66.37 628.50 61.36 631.86 56.50 635.45 C 54.76 630.29 49.78 627.46 44.70 626.49 C 47.31 622.38 51.76 620.23 55.64 617.57 C 58.21 615.87 61.16 614.98 63.99 613.87 C 73.74 609.75 83.75 605.87 94.29 604.36 C 97.26 603.82 100.14 602.87 103.05 602.09 Z" />
<path fill="#bbd633" opacity="1.00" d=" M 126.13 616.08 C 128.56 614.70 131.71 613.34 134.45 614.53 C 135.44 619.70 132.12 624.45 129.97 628.91 C 127.01 635.01 121.91 639.57 117.55 644.62 C 113.38 650.57 109.85 656.93 106.08 663.13 C 105.19 664.71 105.11 666.58 104.84 668.35 C 102.85 666.94 101.42 664.95 99.68 663.28 C 96.39 660.32 91.14 661.23 88.17 657.80 C 91.86 650.00 96.07 642.35 102.12 636.11 C 105.81 631.04 111.55 628.25 115.88 623.86 C 119.10 621.02 122.61 618.52 126.13 616.08 Z" />
<path fill="#bbd633" opacity="1.00" d=" M 942.52 695.48 C 943.84 695.58 945.06 696.13 946.33 696.56 C 949.60 697.84 953.30 697.15 956.58 698.51 C 960.69 700.08 964.75 701.87 969.06 702.85 C 975.76 704.31 982.69 703.56 989.44 704.73 C 987.04 707.02 984.33 708.94 981.34 710.36 C 978.32 711.52 977.07 714.74 974.58 716.59 C 970.68 719.40 967.90 723.45 965.79 727.71 C 963.22 733.79 964.14 740.64 965.19 746.96 C 965.11 747.44 964.95 748.39 964.87 748.86 C 961.53 748.76 958.81 746.51 956.03 744.93 C 951.91 742.00 947.04 740.21 943.32 736.71 C 941.18 734.70 938.43 733.10 937.32 730.25 C 940.50 728.52 944.43 727.72 946.65 724.60 C 949.18 721.70 949.22 717.63 948.98 714.01 C 948.66 707.30 943.55 701.94 942.52 695.48 Z" />
<path fill="#bbd633" opacity="1.00" d=" M 867.87 723.89 C 873.60 722.20 879.74 722.86 885.61 723.37 C 891.58 724.19 897.12 726.73 902.98 728.06 C 911.89 731.41 921.56 730.74 930.90 731.19 C 930.57 732.77 928.79 732.89 927.60 733.52 C 924.14 734.78 921.62 737.61 918.44 739.37 C 915.28 741.17 912.33 743.52 910.46 746.70 C 913.18 748.72 916.44 749.87 919.19 751.85 C 926.97 758.49 932.22 767.41 939.29 774.72 C 942.03 777.92 945.14 780.78 947.79 784.07 C 947.27 784.13 946.22 784.26 945.70 784.32 C 941.58 783.18 937.26 782.75 933.00 783.10 C 929.86 783.03 928.29 786.18 925.93 787.70 C 918.32 779.42 907.66 772.88 904.46 761.47 C 904.13 761.40 903.46 761.25 903.13 761.18 C 902.72 763.44 902.52 765.76 902.70 768.07 C 902.85 770.94 905.24 773.21 905.11 776.15 C 903.83 776.23 902.64 776.00 901.52 775.46 C 890.37 770.38 879.99 763.33 871.90 754.07 C 865.61 748.42 862.04 740.26 860.29 732.14 C 861.39 728.47 864.64 725.72 867.87 723.89 Z" />
<path fill="#bbd633" opacity="1.00" d=" M 843.17 772.82 C 846.53 772.33 850.10 772.98 852.77 775.20 C 856.81 778.42 861.39 781.20 864.60 785.33 C 867.96 790.85 872.76 795.24 876.70 800.33 C 879.76 804.34 884.32 807.27 886.15 812.14 C 880.90 809.87 875.00 809.28 869.41 810.45 C 867.44 811.68 866.11 813.63 864.62 815.35 C 857.95 808.04 849.58 802.15 844.42 793.56 C 841.80 789.54 841.91 784.56 841.82 779.97 C 841.95 777.56 841.66 774.87 843.17 772.82 Z" />
</g>
<g id="#17681cff">
<path fill="#17681c" opacity="1.00" d=" M 117.21 263.96 C 127.82 263.87 138.36 265.24 148.74 267.39 C 179.24 274.76 209.16 284.28 238.93 294.15 C 242.56 295.48 246.20 296.78 249.87 298.00 C 255.33 299.75 260.71 302.11 266.44 302.74 C 266.71 301.64 266.94 300.54 267.15 299.43 C 267.39 298.36 267.64 297.29 267.90 296.23 C 270.25 289.78 274.36 283.98 279.97 279.98 C 290.86 272.14 304.32 269.40 317.35 267.53 C 321.51 268.74 324.57 272.02 328.62 273.49 C 331.74 275.63 334.66 278.07 337.80 280.20 C 340.44 284.32 343.18 288.61 344.42 293.39 C 345.10 299.22 344.35 305.11 344.76 310.97 C 345.26 318.99 345.01 327.29 348.10 334.86 C 348.71 339.56 351.42 343.50 353.32 347.74 C 356.69 354.40 362.90 358.86 367.35 364.68 C 368.49 367.82 369.49 371.02 370.57 374.19 C 371.78 380.10 369.28 386.08 366.56 391.18 C 365.42 389.67 364.00 388.38 362.11 388.01 C 337.51 380.78 313.15 372.81 288.54 365.61 C 263.95 357.85 239.30 350.30 214.73 342.47 C 200.18 338.18 185.77 333.47 171.35 328.76 C 150.90 322.09 130.31 315.87 109.89 309.14 C 104.21 307.61 98.57 305.91 93.05 303.87 C 87.63 302.17 82.73 299.13 77.20 297.74 C 77.58 296.39 79.09 295.75 80.31 295.38 C 84.17 295.33 88.02 296.54 91.88 295.74 C 91.80 294.18 91.53 292.59 90.73 291.23 C 89.75 288.80 86.72 289.64 84.76 288.70 C 84.20 287.16 84.45 285.18 83.04 284.08 C 81.63 282.51 78.73 280.94 80.28 278.47 C 85.38 276.56 90.88 276.56 96.24 276.55 C 103.47 277.21 110.61 278.78 117.89 278.89 C 116.07 275.57 112.91 272.84 112.26 268.99 C 111.98 266.09 115.22 265.16 117.21 263.96 Z" />
<path fill="#17681c" opacity="1.00" d=" M 394.23 292.95 C 394.61 285.12 396.30 276.68 401.87 270.81 C 405.51 271.30 409.14 271.85 412.79 272.30 C 439.00 276.61 465.08 281.76 490.88 288.05 C 526.60 295.94 561.74 306.22 596.91 316.21 C 603.88 318.95 611.52 319.80 618.13 323.43 C 610.14 326.40 603.35 331.61 596.29 336.19 C 594.15 338.41 592.18 340.84 589.47 342.41 C 585.70 344.61 583.90 348.82 580.50 351.44 C 575.67 355.56 572.64 361.22 569.65 366.70 C 567.89 370.15 564.03 372.06 562.89 375.89 C 558.62 385.01 552.93 393.57 550.18 403.35 C 548.16 412.20 543.43 420.25 542.34 429.32 C 541.56 430.03 540.74 430.70 539.89 431.33 L 539.00 431.37 C 535.52 429.60 532.59 426.92 529.74 424.29 C 523.39 416.30 513.22 412.86 503.82 409.92 C 503.78 409.18 503.71 407.71 503.67 406.97 C 506.44 401.79 508.27 396.17 511.29 391.12 C 512.35 388.21 513.09 385.18 514.57 382.43 C 517.57 376.55 516.98 369.65 519.71 363.68 C 521.25 360.24 520.67 356.33 521.93 352.82 C 524.12 347.16 523.93 340.96 524.13 334.99 C 524.06 327.56 524.62 319.75 521.40 312.83 C 520.20 307.38 517.60 302.25 514.06 297.95 C 511.89 295.16 508.25 294.82 505.20 293.59 C 503.18 292.85 501.23 291.72 499.02 291.73 C 495.54 291.40 492.63 293.75 489.26 294.10 C 486.27 294.52 483.27 295.10 480.60 296.57 C 473.31 300.54 465.62 303.88 458.89 308.80 C 454.53 312.36 449.83 315.47 445.35 318.87 C 440.71 322.36 438.05 327.85 433.24 331.15 C 429.07 333.95 425.94 337.91 422.24 341.24 C 416.90 345.97 413.40 352.41 407.67 356.74 C 404.04 359.35 401.60 365.35 396.26 363.86 C 394.95 356.29 394.37 348.61 393.92 340.95 C 393.67 338.59 392.26 336.49 392.28 334.08 C 391.94 323.69 391.92 313.30 392.19 302.92 C 392.02 299.43 394.32 296.44 394.23 292.95 Z" />
<path fill="#17681c" opacity="1.00" d=" M 432.99 359.92 C 440.85 354.64 448.33 348.69 456.99 344.74 C 457.36 345.38 458.10 346.67 458.46 347.31 C 453.30 354.24 449.07 361.85 443.30 368.32 C 438.86 373.26 435.45 379.05 430.72 383.73 C 424.25 390.33 417.75 396.91 411.10 403.32 C 406.89 402.11 402.72 400.75 398.67 399.11 C 398.71 396.33 398.12 393.27 399.66 390.77 C 402.46 386.31 406.69 383.05 410.26 379.25 C 412.84 376.48 415.80 374.11 418.72 371.72 C 423.27 367.56 427.77 363.26 432.99 359.92 Z" />
<path fill="#17681c" opacity="1.00" d=" M 863.07 448.85 C 862.35 445.36 864.46 441.69 868.05 441.12 C 871.08 440.87 872.34 443.85 874.16 445.64 C 876.54 445.27 878.57 446.06 880.31 447.69 C 885.60 447.20 890.44 449.71 895.64 450.23 C 894.92 451.07 894.15 451.87 893.62 452.85 C 896.43 455.67 900.49 457.02 904.45 456.39 C 909.08 455.59 913.59 457.10 917.79 458.94 C 916.93 459.62 916.08 460.29 915.25 460.98 C 917.75 461.60 920.33 461.82 922.87 462.33 C 925.13 462.80 927.14 464.24 929.51 464.32 C 932.18 464.58 935.06 464.42 937.47 465.81 C 939.01 466.86 939.62 468.95 941.36 469.78 C 944.23 471.25 947.51 469.86 950.53 470.57 C 952.99 471.12 955.40 472.05 957.97 472.07 C 960.78 472.33 964.05 471.58 966.37 473.65 C 970.53 476.87 974.62 480.52 979.94 481.60 C 984.37 483.62 989.48 483.72 993.58 486.46 C 996.91 488.57 1001.29 484.67 1004.41 487.59 C 1005.86 488.89 1007.79 488.66 1009.60 488.82 C 1010.72 489.91 1011.74 491.13 1013.20 491.83 C 1017.14 493.62 1019.23 498.42 1024.00 498.46 L 1024.00 591.28 C 973.95 575.94 923.89 560.62 873.85 545.28 C 870.49 544.17 867.08 542.94 863.50 543.16 C 868.12 535.53 872.19 527.51 875.02 519.04 C 877.82 506.63 878.01 493.68 876.11 481.13 C 875.59 475.94 872.98 471.31 871.68 466.31 C 868.64 460.58 866.60 454.31 863.07 448.85 Z" />
</g>
<g id="#635b32ff">
<path fill="#635b32" opacity="1.00" d=" M 0.00 265.72 C 21.52 266.45 42.99 268.59 64.27 271.88 C 59.17 273.59 53.09 270.45 48.57 273.46 C 48.39 276.44 47.23 279.50 47.51 282.43 C 49.40 283.36 51.41 284.03 53.28 285.01 C 52.88 285.43 52.06 286.27 51.66 286.70 C 34.15 283.75 17.36 277.47 0.00 273.78 L 0.00 265.72 Z" />
<path fill="#635b32" opacity="1.00" d=" M 1.22 322.17 C 4.88 323.50 7.39 326.69 8.99 330.11 C 12.56 337.94 15.31 346.11 17.80 354.33 C 21.92 365.64 24.72 377.36 28.26 388.85 C 35.14 412.16 42.14 435.43 49.39 458.62 C 52.14 470.19 56.22 481.37 59.31 492.84 C 68.54 523.92 77.65 555.02 86.92 586.10 C 87.72 588.64 88.17 591.35 89.52 593.69 C 90.17 593.87 91.48 594.23 92.13 594.41 C 87.32 595.88 82.24 595.72 77.35 596.68 C 70.77 598.81 63.78 597.63 57.00 597.92 C 48.08 598.28 38.99 597.40 30.25 599.66 C 28.99 598.92 27.57 598.38 26.52 597.34 C 24.74 592.20 24.21 586.75 23.22 581.44 C 22.55 578.07 20.70 575.06 20.17 571.66 C 19.57 568.08 19.46 564.36 17.89 561.03 C 16.81 558.30 14.57 556.32 13.02 553.90 C 12.14 551.97 11.83 549.85 11.04 547.90 C 9.26 546.28 6.56 545.67 5.64 543.21 C 4.68 540.75 2.18 539.79 0.00 538.69 L 0.00 324.22 C 0.31 323.71 0.92 322.68 1.22 322.17 Z" />
<path fill="#635b32" opacity="1.00" d=" M 642.24 347.13 C 649.53 343.40 658.01 343.85 665.98 343.71 C 672.99 344.12 680.43 343.84 686.80 347.23 C 695.23 348.68 701.43 355.04 707.11 360.94 C 711.59 366.56 714.57 373.16 717.17 379.80 C 720.06 393.98 719.80 408.62 718.69 422.97 C 716.94 417.70 714.34 412.73 713.80 407.10 C 710.98 401.34 708.87 395.24 706.77 389.17 C 703.60 383.49 700.15 377.94 696.45 372.59 C 691.79 368.86 687.32 364.72 681.91 362.12 C 670.91 359.05 659.16 359.83 648.11 362.20 C 641.83 364.86 636.38 369.03 630.64 372.63 C 627.52 377.49 624.12 382.14 620.82 386.88 C 618.83 389.97 618.75 393.81 616.97 396.99 C 614.88 400.55 615.58 404.93 613.74 408.59 C 612.24 411.73 613.83 415.94 611.15 418.53 L 610.45 417.91 C 609.47 409.61 610.07 401.23 610.31 392.91 C 610.32 390.48 612.19 388.54 612.21 386.09 C 612.73 379.77 615.44 373.90 618.30 368.34 C 620.59 362.13 626.04 358.02 630.16 353.10 C 633.80 350.44 637.78 348.10 642.24 347.13 Z" />
<path fill="#635b32" opacity="1.00" d=" M 806.95 353.82 C 811.30 351.48 816.33 352.07 821.10 352.14 C 823.88 352.06 826.22 353.90 828.97 354.09 C 831.08 354.22 833.04 354.97 834.76 356.20 C 844.22 359.59 852.52 367.82 854.01 378.04 C 854.87 380.98 856.31 383.79 856.02 386.97 C 855.87 393.66 857.01 400.71 854.31 407.03 C 853.25 412.84 853.29 419.08 850.42 424.40 C 849.35 426.68 849.42 429.29 848.56 431.64 C 847.37 433.32 846.61 435.21 846.06 437.18 C 845.59 437.34 844.64 437.66 844.16 437.82 C 846.58 435.04 846.46 431.34 846.91 427.89 C 847.15 425.12 849.03 422.80 849.09 420.00 C 850.15 409.06 850.70 397.94 848.92 387.05 C 847.10 383.44 846.34 379.39 844.04 376.03 C 842.30 370.53 836.87 367.67 832.32 364.77 C 828.46 363.92 825.11 361.24 821.01 361.71 C 812.26 361.10 805.42 367.21 798.50 371.53 C 790.28 379.24 784.34 388.91 778.25 398.30 C 776.09 403.88 772.72 408.87 770.48 414.41 C 769.61 416.60 768.45 418.74 766.74 420.39 C 767.26 414.25 767.39 407.82 770.21 402.23 C 770.59 397.33 773.11 393.12 774.66 388.57 C 776.86 385.12 777.08 380.81 779.52 377.49 C 781.17 375.16 782.48 372.57 784.46 370.49 C 786.93 367.88 788.14 364.16 791.28 362.20 C 796.33 359.11 800.81 354.62 806.95 353.82 Z" />
<path fill="#635b32" opacity="1.00" d=" M 546.37 446.40 C 549.36 445.43 552.91 445.59 555.51 447.48 C 557.80 450.67 557.76 455.34 555.60 458.58 C 552.38 461.02 547.55 460.97 544.22 458.79 C 541.80 455.17 541.62 448.07 546.37 446.40 Z" />
<path fill="#635b32" opacity="1.00" d=" M 577.44 456.52 C 580.75 455.84 584.96 455.86 586.98 459.08 C 591.13 462.56 587.86 468.04 585.43 471.51 C 580.46 474.10 572.63 471.36 572.79 465.06 C 571.99 461.36 574.33 458.20 577.44 456.52 Z" />
<path fill="#635b32" opacity="1.00" d=" M 561.48 473.60 C 563.39 471.52 566.49 472.15 568.69 473.38 C 569.16 475.07 569.08 476.88 568.62 478.57 C 566.75 479.65 563.58 481.11 562.11 478.75 C 560.92 477.39 559.17 474.83 561.48 473.60 Z" />
<path fill="#635b32" opacity="1.00" d=" M 320.37 482.51 C 327.63 481.01 335.61 481.32 342.34 484.63 C 347.40 488.49 352.38 492.70 355.78 498.16 C 358.01 501.22 358.76 505.00 360.54 508.30 C 361.82 514.39 361.84 520.79 360.81 526.93 C 358.63 531.42 357.02 536.77 352.55 539.57 C 349.21 541.66 346.37 544.95 342.23 545.39 C 337.85 545.87 333.35 545.96 329.04 544.97 C 324.99 543.17 321.32 540.64 317.47 538.49 C 313.73 535.48 311.64 531.03 308.74 527.32 C 305.91 523.87 305.56 519.25 304.89 515.03 C 304.31 508.17 304.38 501.07 306.59 494.49 C 310.20 489.65 314.07 483.83 320.37 482.51 Z" />
<path fill="#635b32" opacity="1.00" d=" M 371.69 484.57 C 375.41 481.91 380.86 484.74 382.14 488.85 C 383.08 492.12 383.18 496.05 380.75 498.74 C 378.03 500.20 373.38 500.38 371.80 497.22 C 370.58 494.92 368.32 492.82 368.80 489.99 C 368.86 487.84 370.22 486.01 371.69 484.57 Z" />
<path fill="#635b32" opacity="1.00" d=" M 655.80 491.75 C 659.48 490.87 662.31 488.07 665.95 487.08 C 664.29 491.12 660.17 493.05 656.38 494.57 C 656.40 494.85 656.44 495.40 656.46 495.68 C 663.51 499.81 670.70 503.85 678.33 506.84 C 681.31 507.93 683.90 509.78 686.73 511.19 C 698.30 515.95 709.59 521.39 721.31 525.77 C 728.17 527.54 734.36 531.15 741.20 533.00 C 746.01 535.06 751.22 535.85 756.05 537.84 C 760.61 539.36 765.57 539.13 770.07 540.94 C 775.08 542.85 780.57 542.15 785.68 543.59 C 791.61 545.59 797.95 544.44 804.08 544.79 C 808.10 545.08 811.71 543.01 815.62 542.49 C 818.97 541.94 821.90 540.11 825.08 539.02 C 830.79 537.22 834.83 532.34 837.55 527.24 C 838.01 527.09 838.91 526.80 839.37 526.65 C 839.31 533.15 833.60 537.36 829.75 541.90 C 824.61 544.97 818.74 546.49 813.02 548.08 C 801.73 549.35 790.27 549.10 779.00 547.83 C 773.02 545.87 766.62 545.85 760.81 543.35 C 756.45 542.69 752.65 540.20 748.29 539.66 C 740.25 538.83 733.08 534.80 725.40 532.59 C 720.42 531.25 715.88 528.76 711.05 527.02 C 700.24 524.47 690.97 517.93 680.47 514.50 C 674.91 511.77 669.57 508.60 663.93 506.03 C 659.37 503.84 655.50 500.56 651.57 497.45 C 648.06 495.95 643.83 497.45 640.38 495.57 C 638.12 494.40 635.81 493.30 633.31 492.77 C 632.19 491.44 631.15 490.06 630.19 488.62 C 634.29 489.84 638.01 492.41 642.39 492.57 C 646.86 492.81 651.43 492.84 655.80 491.75 Z" />
<path fill="#635b32" opacity="1.00" d=" M 381.58 507.55 C 386.26 505.82 392.55 505.94 396.27 509.76 C 400.07 513.48 402.91 519.31 400.40 524.53 C 397.69 528.91 394.13 533.36 388.98 534.88 C 385.22 535.59 380.96 535.62 377.76 533.24 C 369.33 528.88 369.13 515.05 377.11 510.15 C 378.57 509.23 380.07 508.37 381.58 507.55 Z" />
<path fill="#635b32" opacity="1.00" d=" M 828.56 510.92 C 830.00 508.81 832.13 511.62 833.64 512.33 C 837.31 513.31 841.17 513.41 844.96 513.36 C 849.21 513.12 853.81 512.86 857.25 510.03 C 857.71 509.97 858.63 509.85 859.09 509.79 C 858.76 512.41 856.13 513.76 854.31 515.34 C 849.01 518.21 842.52 517.73 836.88 516.18 C 833.52 515.54 831.28 512.74 828.56 510.92 Z" />
<path fill="#635b32" opacity="1.00" d=" M 37.01 634.07 C 40.63 632.66 41.36 628.24 44.70 626.49 C 49.78 627.46 54.76 630.29 56.50 635.45 C 55.42 640.75 49.00 643.31 49.21 649.05 C 48.89 655.34 52.64 660.83 56.68 665.29 C 58.76 667.47 60.00 670.97 63.30 671.54 C 68.23 672.81 73.58 672.17 78.23 670.19 C 80.63 668.70 82.48 666.46 84.15 664.21 C 85.66 662.16 85.76 659.10 88.17 657.80 C 91.14 661.23 96.39 660.32 99.68 663.28 C 101.42 664.95 102.85 666.94 104.84 668.35 C 105.20 670.85 104.79 673.36 103.73 675.66 C 102.52 677.84 104.13 680.07 104.67 682.20 C 105.75 685.12 105.72 688.59 108.00 690.95 C 110.39 693.60 113.21 695.82 116.02 698.01 C 118.50 700.02 121.83 700.53 124.22 702.67 C 123.74 702.87 122.79 703.26 122.32 703.45 C 122.27 705.23 122.79 706.95 123.27 708.65 C 132.02 738.00 140.66 767.37 149.20 796.77 C 153.09 808.53 155.24 820.94 160.85 832.07 C 181.13 875.86 198.65 921.16 209.64 968.24 C 213.59 986.60 217.51 1005.15 217.89 1024.00 L 0.00 1024.00 L 0.00 784.00 C 2.47 783.82 4.97 783.79 7.40 783.29 C 7.52 781.89 7.47 780.49 7.60 779.10 C 9.50 776.53 12.32 774.89 14.63 772.74 C 15.36 771.87 16.50 771.76 17.52 771.47 C 16.81 770.35 15.96 769.32 15.41 768.13 C 17.69 762.43 17.30 755.98 20.45 750.60 C 21.65 744.70 20.05 738.50 21.49 732.56 C 22.46 728.96 20.48 725.28 21.68 721.75 C 23.10 717.27 23.13 712.54 23.79 707.93 C 24.58 703.61 22.24 699.68 21.52 695.54 C 20.75 691.67 22.19 687.69 21.03 683.87 C 19.90 680.13 21.26 676.22 20.45 672.43 C 19.41 667.43 20.18 662.30 19.54 657.27 C 18.33 649.56 18.92 641.73 18.80 633.96 C 18.53 631.79 20.11 630.33 21.57 629.03 C 25.46 632.99 31.41 636.68 37.01 634.07 Z" />
<path fill="#635b32" opacity="1.00" d=" M 500.84 654.18 C 509.93 654.11 518.96 655.39 528.06 655.22 C 529.90 655.39 532.52 654.73 533.29 657.01 C 527.98 657.33 522.60 657.06 517.40 658.34 C 515.13 658.68 512.83 659.67 510.54 659.23 C 507.56 657.07 504.81 654.18 500.84 654.18 Z" />
</g>
<g id="#423737ff">
<path fill="#423737" opacity="1.00" d=" M 48.57 273.46 C 53.09 270.45 59.17 273.59 64.27 271.88 C 70.45 272.48 76.58 273.47 82.74 274.30 C 87.23 275.10 91.76 275.63 96.24 276.55 C 90.88 276.56 85.38 276.56 80.28 278.47 C 78.73 280.94 81.63 282.51 83.04 284.08 C 84.45 285.18 84.20 287.16 84.76 288.70 C 86.72 289.64 89.75 288.80 90.73 291.23 C 91.53 292.59 91.80 294.18 91.88 295.74 C 88.02 296.54 84.17 295.33 80.31 295.38 C 79.09 295.75 77.58 296.39 77.20 297.74 C 82.73 299.13 87.63 302.17 93.05 303.87 C 98.57 305.91 104.21 307.61 109.89 309.14 C 130.31 315.87 150.90 322.09 171.35 328.76 C 185.77 333.47 200.18 338.18 214.73 342.47 C 239.30 350.30 263.95 357.85 288.54 365.61 C 313.15 372.81 337.51 380.78 362.11 388.01 C 364.00 388.38 365.42 389.67 366.56 391.18 C 361.47 395.49 360.74 403.09 363.02 409.01 C 370.90 417.17 383.77 418.08 393.94 414.16 C 392.91 416.46 396.27 415.82 394.78 413.93 C 397.71 409.55 399.08 404.37 398.67 399.11 C 402.72 400.75 406.89 402.11 411.10 403.32 C 405.98 407.78 400.74 412.10 395.84 416.80 C 391.60 421.02 386.28 423.89 381.81 427.84 C 379.04 430.46 374.84 429.74 371.64 431.56 C 365.71 433.57 360.11 436.38 354.06 438.03 C 347.68 441.20 341.21 444.28 335.14 448.04 C 331.95 449.93 328.29 451.01 325.41 453.41 C 319.53 458.22 312.69 461.79 307.34 467.26 C 288.69 458.88 269.83 450.94 250.97 443.03 C 247.65 441.50 244.06 443.06 240.73 443.75 C 234.93 445.35 229.06 446.70 223.31 448.48 C 223.54 450.32 225.47 451.15 226.69 452.29 C 243.22 464.80 259.96 477.02 276.65 489.31 C 279.53 491.26 282.43 493.30 284.43 496.22 C 282.61 502.47 279.98 508.45 278.68 514.84 C 276.53 518.93 276.37 523.57 275.98 528.08 C 275.86 531.50 273.57 534.47 273.95 537.97 C 274.14 541.69 273.35 545.61 274.85 549.15 C 276.55 553.13 275.43 557.70 277.23 561.67 C 279.68 568.79 282.09 576.20 286.73 582.23 C 289.54 584.20 289.16 588.07 287.90 590.86 C 286.52 593.87 286.92 597.27 286.37 600.47 C 284.08 608.94 278.95 616.76 271.36 621.38 C 267.76 622.94 264.19 620.54 261.10 618.90 C 256.86 616.36 251.64 615.38 248.07 611.79 C 241.15 601.93 236.14 590.93 231.05 580.05 C 227.29 571.81 224.44 563.19 221.50 554.63 C 220.31 548.97 217.64 543.78 216.76 538.05 C 215.36 533.64 214.04 529.20 213.58 524.57 C 213.31 520.56 209.95 516.78 211.73 512.75 C 213.38 508.42 214.38 503.83 216.65 499.75 C 219.12 494.77 221.96 488.56 218.69 483.27 C 213.71 473.85 203.00 469.74 193.20 467.54 C 188.77 468.59 184.03 470.64 181.84 474.90 C 178.46 482.54 180.81 491.01 179.77 499.00 C 177.56 507.97 172.40 516.37 164.73 521.68 C 160.96 525.98 154.70 524.41 149.99 526.85 C 146.28 528.78 142.43 530.57 139.06 533.08 C 132.92 538.59 126.47 544.05 122.33 551.31 C 119.36 556.59 115.27 561.18 112.80 566.75 C 110.60 571.72 106.68 575.70 104.82 580.85 C 102.48 586.79 98.26 592.11 92.13 594.41 C 91.48 594.23 90.17 593.87 89.52 593.69 C 88.17 591.35 87.72 588.64 86.92 586.10 C 77.65 555.02 68.54 523.92 59.31 492.84 C 56.22 481.37 52.14 470.19 49.39 458.62 C 42.14 435.43 35.14 412.16 28.26 388.85 C 24.72 377.36 21.92 365.64 17.80 354.33 C 15.31 346.11 12.56 337.94 8.99 330.11 C 7.39 326.69 4.88 323.50 1.22 322.17 C 0.92 322.68 0.31 323.71 0.00 324.22 L 0.00 273.78 C 17.36 277.47 34.15 283.75 51.66 286.70 C 52.06 286.27 52.88 285.43 53.28 285.01 C 51.41 284.03 49.40 283.36 47.51 282.43 C 47.23 279.50 48.39 276.44 48.57 273.46 M 3.23 291.30 L 2.99 292.06 C 6.10 295.46 10.00 298.16 14.04 300.35 C 14.22 300.59 14.58 301.07 14.77 301.31 C 18.49 301.34 22.19 300.23 25.88 299.72 C 24.76 297.82 22.34 297.46 20.36 297.06 C 17.47 294.87 13.88 293.95 10.66 292.37 C 8.37 291.18 5.76 290.85 3.23 291.30 M 30.06 312.17 C 30.33 313.90 32.15 314.63 33.31 315.70 C 37.26 318.44 40.73 321.92 45.04 324.09 C 45.76 325.02 46.62 326.38 48.03 325.97 C 51.47 325.60 54.80 324.61 58.23 324.17 C 59.44 323.72 61.31 324.18 62.03 322.90 C 59.88 320.91 56.91 320.09 54.15 319.30 C 49.43 316.25 43.96 314.69 38.95 312.19 C 36.24 310.80 32.70 310.46 30.06 312.17 M 69.46 340.14 C 69.69 341.19 70.95 341.59 71.66 342.31 C 80.19 348.52 88.18 355.58 97.32 360.88 C 98.08 362.83 100.32 364.11 102.39 363.52 C 109.44 362.40 116.39 360.70 123.44 359.50 C 124.60 359.01 126.52 359.39 127.05 358.01 C 123.92 355.92 120.04 355.14 116.76 353.25 C 115.35 352.89 113.82 351.30 112.38 352.08 C 110.88 350.62 108.87 349.89 106.99 349.07 C 98.77 345.61 90.65 341.92 82.39 338.57 C 78.26 336.22 73.44 338.73 69.46 340.14 M 145.65 378.64 C 141.18 379.82 136.65 380.83 132.25 382.24 C 133.15 384.07 134.94 385.20 136.48 386.45 C 145.02 392.58 153.20 399.19 161.82 405.20 C 165.59 407.77 168.92 411.02 173.02 413.09 C 174.73 415.67 177.50 417.41 180.23 418.75 C 185.23 418.57 190.01 416.79 194.95 416.07 C 203.91 414.58 212.86 412.99 221.70 410.86 L 221.70 410.14 C 215.85 406.69 209.01 405.23 203.11 401.83 C 201.56 401.32 199.96 399.59 198.31 400.24 C 183.73 393.00 168.42 387.21 153.56 380.54 C 151.03 379.61 148.45 377.76 145.65 378.64 Z" />
<path fill="#423737" opacity="1.00" d=" M 190.75 545.75 C 192.32 543.30 193.90 539.29 197.52 540.17 C 197.83 542.84 197.64 545.65 198.82 548.15 C 200.77 552.33 199.83 557.17 201.60 561.41 C 204.47 568.22 203.29 575.98 206.12 582.80 C 207.63 586.42 207.08 590.57 208.87 594.11 C 210.62 597.56 210.18 601.63 211.88 605.11 C 214.37 610.13 213.55 616.03 215.88 621.12 C 220.11 632.89 224.64 644.59 230.30 655.75 C 231.51 660.35 235.00 663.75 236.97 667.99 C 238.75 671.70 241.78 674.59 243.99 678.03 C 247.38 683.48 253.26 686.56 258.85 689.29 C 264.16 691.93 270.27 691.16 276.00 691.36 C 284.77 691.19 293.92 691.81 302.21 688.45 C 307.49 687.37 312.29 684.91 317.42 683.34 C 319.79 682.14 321.85 680.37 324.27 679.23 C 327.11 677.89 328.73 675.11 330.88 672.96 C 332.80 671.51 335.24 670.73 336.82 668.82 C 341.16 663.47 345.83 658.27 348.97 652.08 C 352.71 644.52 356.87 637.06 358.90 628.81 C 361.69 625.85 366.08 627.85 369.32 628.86 C 375.90 631.83 382.91 633.68 389.60 636.40 C 394.38 638.54 399.84 638.25 404.57 640.54 C 407.75 641.99 411.38 641.98 414.56 643.49 C 417.78 644.86 421.36 645.03 424.60 646.40 C 427.83 647.78 431.41 647.57 434.76 648.43 C 442.80 651.55 451.61 651.22 460.08 652.16 C 463.19 651.99 465.85 654.04 468.93 654.01 C 479.56 654.15 490.21 653.73 500.84 654.18 C 504.81 654.18 507.56 657.07 510.54 659.23 C 512.83 659.67 515.13 658.68 517.40 658.34 C 522.60 657.06 527.98 657.33 533.29 657.01 C 543.18 657.29 553.12 656.91 562.96 658.14 C 568.99 658.94 575.54 656.88 581.05 660.13 C 588.30 660.54 595.59 659.95 602.83 660.54 C 610.26 661.43 617.85 661.15 625.14 662.93 C 628.26 664.40 631.73 664.43 635.05 665.15 C 640.13 666.95 645.10 669.10 650.23 670.77 C 654.97 671.48 659.19 673.80 663.59 675.59 C 673.52 680.48 683.75 684.73 693.90 689.16 C 700.77 693.36 708.61 695.62 715.54 699.73 C 725.87 704.89 736.34 709.83 746.39 715.54 C 752.91 718.51 759.76 721.07 765.52 725.46 C 768.19 727.29 771.89 727.27 774.20 729.69 C 776.59 732.97 776.14 737.29 776.89 741.09 C 763.11 735.12 749.78 728.14 736.10 721.95 C 729.64 718.14 722.72 715.21 715.96 711.99 C 709.99 708.91 703.62 712.96 697.80 714.56 C 679.56 719.32 661.60 725.07 643.32 729.66 C 640.52 730.35 637.73 731.11 635.07 732.19 C 636.26 734.77 638.62 736.49 640.74 738.28 C 644.47 741.25 647.71 744.87 651.97 747.13 C 707.21 792.23 762.43 837.37 817.98 882.07 C 823.31 887.11 829.37 891.31 834.85 896.18 C 843.53 902.40 851.03 910.05 859.69 916.30 C 888.48 939.49 916.87 963.18 945.74 986.27 C 961.46 998.64 976.49 1011.84 992.38 1024.00 L 217.89 1024.00 C 217.51 1005.15 213.59 986.60 209.64 968.24 C 198.65 921.16 181.13 875.86 160.85 832.07 C 155.24 820.94 153.09 808.53 149.20 796.77 C 140.66 767.37 132.02 738.00 123.27 708.65 C 122.79 706.95 122.27 705.23 122.32 703.45 C 122.79 703.26 123.74 702.87 124.22 702.67 C 127.06 702.98 130.33 703.63 132.83 701.84 C 135.18 700.17 137.60 698.60 139.98 696.97 C 143.44 694.05 144.62 689.49 145.48 685.24 C 147.79 680.14 147.26 674.45 147.96 669.02 C 148.20 662.69 147.13 656.39 146.89 650.08 C 145.42 646.55 144.37 642.54 145.85 638.82 C 148.50 632.53 147.38 625.35 150.18 619.11 C 152.76 613.32 154.65 607.24 157.48 601.56 C 160.04 594.80 164.23 588.85 167.29 582.32 C 172.75 571.39 180.16 561.62 185.98 550.91 C 187.54 549.16 189.69 547.92 190.75 545.75 Z" />
<path fill="#423737" opacity="1.00" d=" M 863.50 543.16 C 867.08 542.94 870.49 544.17 873.85 545.28 C 923.89 560.62 973.95 575.94 1024.00 591.28 L 1024.00 860.11 C 1014.52 855.00 1004.52 850.96 994.95 846.04 C 985.85 841.46 976.51 837.38 967.56 832.52 C 959.69 829.11 952.22 824.79 944.17 821.82 C 937.88 818.32 931.25 815.53 924.77 812.42 C 927.15 808.75 931.59 805.78 931.42 801.00 C 931.97 795.70 926.05 792.85 925.93 787.70 C 928.29 786.18 929.86 783.03 933.00 783.10 C 937.26 782.75 941.58 783.18 945.70 784.32 C 947.36 786.62 950.39 786.43 952.85 787.24 C 955.20 787.57 955.47 790.51 957.27 791.69 C 959.98 793.17 963.15 793.89 966.25 793.50 C 973.57 792.82 980.40 789.54 986.30 785.28 C 988.71 783.01 989.74 779.50 990.08 776.30 C 989.12 772.04 988.09 767.45 984.63 764.46 C 980.15 760.18 976.11 755.06 970.27 752.59 C 967.86 751.50 966.32 749.24 965.19 746.96 C 964.14 740.64 963.22 733.79 965.79 727.71 C 967.90 723.45 970.68 719.40 974.58 716.59 C 977.07 714.74 978.32 711.52 981.34 710.36 C 984.33 708.94 987.04 707.02 989.44 704.73 C 993.69 703.57 998.31 703.44 1002.20 701.14 C 1005.58 699.33 1008.76 696.58 1010.10 692.90 C 1011.68 686.66 1007.92 681.05 1005.60 675.56 C 1003.28 670.17 998.98 666.20 994.91 662.15 C 988.27 656.25 978.12 655.24 970.20 659.04 C 966.87 660.55 963.23 661.06 959.77 662.17 C 959.90 662.66 960.04 663.16 960.19 663.66 C 956.93 664.64 954.03 666.36 951.38 668.46 C 947.91 671.21 943.35 671.78 939.07 671.99 C 930.80 672.17 922.31 672.25 914.38 669.55 C 903.54 665.75 894.00 659.28 883.68 654.41 C 880.15 652.80 876.96 650.19 872.99 649.82 C 867.98 649.25 862.99 650.30 858.02 650.75 C 851.32 651.16 845.57 654.97 839.62 657.70 C 836.96 658.48 836.50 661.43 835.29 663.53 C 833.90 664.12 832.69 663.03 831.49 662.53 C 828.42 660.77 824.76 660.23 821.92 658.05 C 814.69 652.76 806.03 650.13 798.28 645.77 C 792.42 641.92 786.17 638.59 779.49 636.42 C 773.63 632.70 767.55 629.18 760.94 626.98 C 758.15 626.00 755.86 624.10 753.36 622.61 C 746.49 618.68 739.17 615.57 732.28 611.71 C 729.63 609.50 725.64 609.11 723.70 606.13 C 723.77 605.71 723.92 604.88 723.99 604.46 C 726.19 603.45 728.43 602.19 730.94 602.32 C 740.22 602.30 749.58 602.17 758.74 600.63 C 764.52 598.05 771.15 599.45 776.98 597.00 C 780.99 595.19 785.62 595.60 789.55 593.56 C 792.11 592.17 795.11 591.97 797.68 590.62 C 801.52 588.30 806.39 588.78 810.09 586.13 C 814.74 582.79 820.74 581.98 825.03 578.09 C 830.64 574.48 837.27 571.99 841.44 566.58 C 849.45 562.27 854.48 554.57 860.43 548.03 C 861.73 546.60 862.51 544.80 863.50 543.16 Z" />
<path fill="#423737" opacity="1.00" d=" M 677.99 638.04 C 682.94 637.27 686.75 641.03 691.46 641.59 C 696.86 643.36 701.88 646.16 707.37 647.72 C 709.91 649.62 712.97 650.34 716.05 650.91 C 719.41 651.40 721.93 653.98 725.25 654.61 C 731.16 657.14 736.94 660.02 743.16 661.73 C 745.57 663.43 748.37 664.21 751.20 664.90 C 754.87 667.60 759.45 668.31 763.32 670.67 C 769.62 672.01 774.91 675.85 780.80 678.19 C 780.89 678.65 781.07 679.57 781.15 680.04 C 781.14 680.67 781.12 681.95 781.11 682.59 C 777.69 684.61 774.71 687.31 771.82 689.88 C 767.17 688.08 763.18 684.86 758.36 683.51 C 754.42 682.18 751.58 678.75 747.54 677.61 C 744.62 676.79 742.25 674.89 739.85 673.14 C 737.78 671.58 735.15 671.23 732.82 670.26 C 721.04 663.41 708.54 658.07 696.60 651.53 C 690.12 649.03 684.07 645.60 678.33 641.73 L 678.03 641.01 C 678.02 640.27 678.00 638.78 677.99 638.04 Z" />
</g>
<g id="#706b64ff">
<path fill="#706b64" opacity="1.00" d=" M 238.93 294.15 C 248.62 294.29 258.25 295.41 267.90 296.23 C 267.64 297.29 267.39 298.36 267.15 299.43 C 261.42 298.66 255.66 298.01 249.87 298.00 C 246.20 296.78 242.56 295.48 238.93 294.15 Z" />
<path fill="#706b64" opacity="1.00" d=" M 20.36 297.06 C 22.34 297.46 24.76 297.82 25.88 299.72 C 22.19 300.23 18.49 301.34 14.77 301.31 C 14.58 301.07 14.22 300.59 14.04 300.35 C 16.62 300.23 19.16 299.57 20.36 297.06 Z" />
<path fill="#706b64" opacity="1.00" d=" M 596.91 316.21 C 603.57 317.07 610.32 317.08 616.97 318.04 C 619.04 318.38 621.15 318.25 623.12 317.48 C 624.48 318.95 626.29 319.51 628.28 319.44 C 625.14 321.32 621.27 321.42 618.13 323.43 C 611.52 319.80 603.88 318.95 596.91 316.21 Z" />
<path fill="#706b64" opacity="1.00" d=" M 54.15 319.30 C 56.91 320.09 59.88 320.91 62.03 322.90 C 61.31 324.18 59.44 323.72 58.23 324.17 C 54.80 324.61 51.47 325.60 48.03 325.97 C 46.62 326.38 45.76 325.02 45.04 324.09 C 47.35 323.84 49.82 323.96 51.96 322.93 C 53.04 321.97 53.46 320.52 54.15 319.30 Z" />
<path fill="#706b64" opacity="1.00" d=" M 112.38 352.08 C 113.82 351.30 115.35 352.89 116.76 353.25 C 120.04 355.14 123.92 355.92 127.05 358.01 C 126.52 359.39 124.60 359.01 123.44 359.50 C 116.39 360.70 109.44 362.40 102.39 363.52 C 100.32 364.11 98.08 362.83 97.32 360.88 C 101.23 360.09 105.26 359.52 108.94 357.89 C 110.64 356.37 111.30 354.04 112.38 352.08 Z" />
<path fill="#706b64" opacity="1.00" d=" M 198.31 400.24 C 199.96 399.59 201.56 401.32 203.11 401.83 C 209.01 405.23 215.85 406.69 221.70 410.14 L 221.70 410.86 C 212.86 412.99 203.91 414.58 194.95 416.07 C 190.01 416.79 185.23 418.57 180.23 418.75 C 177.50 417.41 174.73 415.67 173.02 413.09 C 178.92 412.91 184.73 411.79 190.59 411.20 C 195.64 410.07 196.73 404.36 198.31 400.24 Z" />
<path fill="#706b64" opacity="1.00" d=" M 0.00 538.69 C 2.18 539.79 4.68 540.75 5.64 543.21 C 6.56 545.67 9.26 546.28 11.04 547.90 C 11.83 549.85 12.14 551.97 13.02 553.90 C 14.57 556.32 16.81 558.30 17.89 561.03 C 19.46 564.36 19.57 568.08 20.17 571.66 C 20.70 575.06 22.55 578.07 23.22 581.44 C 24.21 586.75 24.74 592.20 26.52 597.34 C 27.57 598.38 28.99 598.92 30.25 599.66 C 26.32 601.71 21.94 602.82 18.22 605.32 C 14.00 607.70 12.73 613.33 14.29 617.70 C 15.88 621.94 17.93 626.17 21.57 629.03 C 20.11 630.33 18.53 631.79 18.80 633.96 C 18.92 641.73 18.33 649.56 19.54 657.27 C 20.18 662.30 19.41 667.43 20.45 672.43 C 21.26 676.22 19.90 680.13 21.03 683.87 C 22.19 687.69 20.75 691.67 21.52 695.54 C 22.24 699.68 24.58 703.61 23.79 707.93 C 23.13 712.54 23.10 717.27 21.68 721.75 C 20.48 725.28 22.46 728.96 21.49 732.56 C 20.05 738.50 21.65 744.70 20.45 750.60 C 17.30 755.98 17.69 762.43 15.41 768.13 C 15.96 769.32 16.81 770.35 17.52 771.47 C 16.50 771.76 15.36 771.87 14.63 772.74 C 12.32 774.89 9.50 776.53 7.60 779.10 C 7.47 780.49 7.52 781.89 7.40 783.29 C 4.97 783.79 2.47 783.82 0.00 784.00 L 0.00 538.69 Z" />
<path fill="#706b64" opacity="1.00" d=" M 697.80 714.56 C 703.62 712.96 709.99 708.91 715.96 711.99 C 722.72 715.21 729.64 718.14 736.10 721.95 C 732.37 722.14 728.55 722.35 724.98 721.06 C 719.70 719.31 713.98 719.98 708.71 718.24 C 705.06 717.04 701.53 715.51 697.80 714.56 Z" />
<path fill="#706b64" opacity="1.00" d=" M 635.07 732.19 C 637.73 731.11 640.52 730.35 643.32 729.66 C 643.51 731.19 644.45 732.35 645.74 733.15 C 648.79 735.01 649.95 738.54 651.63 741.50 C 652.64 743.21 651.97 745.26 651.97 747.13 C 647.71 744.87 644.47 741.25 640.74 738.28 C 638.62 736.49 636.26 734.77 635.07 732.19 Z" />
<path fill="#706b64" opacity="1.00" d=" M 944.17 821.82 C 952.22 824.79 959.69 829.11 967.56 832.52 C 976.51 837.38 985.85 841.46 994.95 846.04 C 1004.52 850.96 1014.52 855.00 1024.00 860.11 L 1024.00 1024.00 L 992.38 1024.00 C 976.49 1011.84 961.46 998.64 945.74 986.27 C 916.87 963.18 888.48 939.49 859.69 916.30 C 851.03 910.05 843.53 902.40 834.85 896.18 C 829.37 891.31 823.31 887.11 817.98 882.07 C 822.08 882.51 825.98 883.83 829.84 885.24 C 839.28 887.77 848.64 890.80 858.42 891.85 C 863.96 892.32 870.06 896.67 875.26 892.87 C 871.32 889.52 865.20 890.19 861.43 886.55 C 861.26 885.45 861.20 884.36 861.27 883.27 C 865.34 882.96 869.01 885.19 873.01 885.44 C 876.47 885.88 877.86 880.81 881.38 881.73 C 884.90 881.99 888.28 883.40 891.83 883.39 C 895.16 883.02 898.44 881.74 901.84 882.45 C 906.84 883.26 912.73 884.32 917.12 881.16 C 913.55 878.74 908.18 878.37 906.09 874.21 C 911.02 873.47 915.97 877.43 920.66 874.86 C 924.16 873.03 928.09 872.51 931.92 871.78 C 932.71 869.62 931.80 867.37 931.78 865.17 C 933.17 863.18 935.22 861.76 936.67 859.82 C 936.58 855.09 931.55 852.52 930.11 848.27 C 933.73 845.97 938.10 848.08 942.02 848.16 C 942.34 847.87 942.97 847.29 943.28 847.00 C 942.24 842.35 936.77 840.63 934.01 837.06 C 938.53 835.24 943.38 838.81 947.99 836.89 C 948.49 835.62 947.45 834.64 946.90 833.66 C 947.27 832.47 948.33 831.47 948.23 830.18 C 945.94 827.85 943.83 825.32 944.17 821.82 Z" />
</g>
</svg>
